<?xml version="1.0" encoding="UTF-8" standalone="no"?>
<!DOCTYPE svg PUBLIC "-//W3C//DTD SVG 1.1//EN"
 "http://www.w3.org/Graphics/SVG/1.1/DTD/svg11.dtd">
<!-- Generated by graphviz version 3.0.0 (20220226.1711)
 -->
<!-- Title: G Pages: 1 -->
<svg width="3491pt" height="2077pt"
 viewBox="0.00 0.00 3491.20 2076.83" xmlns="http://www.w3.org/2000/svg" xmlns:xlink="http://www.w3.org/1999/xlink">
<g id="graph0" class="graph" transform="scale(1 1) rotate(0) translate(21.6 2055.23)">
<title>G</title>
<polygon fill="#111111" stroke="transparent" points="-21.6,21.6 -21.6,-2055.23 3469.6,-2055.23 3469.6,21.6 -21.6,21.6"/>
<!-- index.ts -->
<g id="node1" class="node">
<title>index.ts</title>
<path fill="none" stroke="#c6c5fe" d="M57.33,-1219.9C57.33,-1219.9 7.67,-1219.9 7.67,-1219.9 3.83,-1219.9 0,-1216.06 0,-1212.23 0,-1212.23 0,-1204.56 0,-1204.56 0,-1200.73 3.83,-1196.9 7.67,-1196.9 7.67,-1196.9 57.33,-1196.9 57.33,-1196.9 61.17,-1196.9 65,-1200.73 65,-1204.56 65,-1204.56 65,-1212.23 65,-1212.23 65,-1216.06 61.17,-1219.9 57.33,-1219.9"/>
<text text-anchor="middle" x="32.5" y="-1204.7" font-family="Arial" font-size="14.00" fill="#c6c5fe">index.ts</text>
</g>
<!-- maths/algebra/equation.ts -->
<g id="node2" class="node">
<title>maths/algebra/equation.ts</title>
<path fill="none" stroke="#ff6c60" d="M1522.33,-1361.9C1522.33,-1361.9 1358.67,-1361.9 1358.67,-1361.9 1354.83,-1361.9 1351,-1358.06 1351,-1354.23 1351,-1354.23 1351,-1346.56 1351,-1346.56 1351,-1342.73 1354.83,-1338.9 1358.67,-1338.9 1358.67,-1338.9 1522.33,-1338.9 1522.33,-1338.9 1526.17,-1338.9 1530,-1342.73 1530,-1346.56 1530,-1346.56 1530,-1354.23 1530,-1354.23 1530,-1358.06 1526.17,-1361.9 1522.33,-1361.9"/>
<text text-anchor="middle" x="1440.5" y="-1346.7" font-family="Arial" font-size="14.00" fill="#ff6c60">maths/algebra/equation.ts</text>
</g>
<!-- index.ts&#45;&gt;maths/algebra/equation.ts -->
<g id="edge1" class="edge">
<title>index.ts&#45;&gt;maths/algebra/equation.ts</title>
<path fill="none" stroke="#757575" d="M65.39,-1210.51C113.29,-1213.7 206.66,-1219.94 286,-1225.4 725.71,-1255.65 861.7,-1145.27 1275,-1298.4 1293.51,-1305.25 1292.92,-1316.48 1311,-1324.4 1322.11,-1329.26 1334.15,-1333.22 1346.27,-1336.45"/>
<polygon fill="#757575" stroke="#757575" points="1345.43,-1339.85 1355.98,-1338.88 1347.13,-1333.06 1345.43,-1339.85"/>
</g>
<!-- maths/algebra/linearSystem.ts -->
<g id="node3" class="node">
<title>maths/algebra/linearSystem.ts</title>
<path fill="none" stroke="#c6c5fe" d="M1018.33,-855.9C1018.33,-855.9 827.67,-855.9 827.67,-855.9 823.83,-855.9 820,-852.06 820,-848.23 820,-848.23 820,-840.56 820,-840.56 820,-836.73 823.83,-832.9 827.67,-832.9 827.67,-832.9 1018.33,-832.9 1018.33,-832.9 1022.17,-832.9 1026,-836.73 1026,-840.56 1026,-840.56 1026,-848.23 1026,-848.23 1026,-852.06 1022.17,-855.9 1018.33,-855.9"/>
<text text-anchor="middle" x="923" y="-840.7" font-family="Arial" font-size="14.00" fill="#c6c5fe">maths/algebra/linearSystem.ts</text>
</g>
<!-- index.ts&#45;&gt;maths/algebra/linearSystem.ts -->
<g id="edge2" class="edge">
<title>index.ts&#45;&gt;maths/algebra/linearSystem.ts</title>
<path fill="none" stroke="#757575" d="M33.97,-1196.64C36.42,-1142.03 49.63,-913.9 101,-870.4 332.48,-674.36 746.09,-786.14 879.36,-829.56"/>
<polygon fill="#757575" stroke="#757575" points="878.61,-832.99 889.2,-832.8 880.8,-826.35 878.61,-832.99"/>
</g>
<!-- maths/algebra/logicalset.ts -->
<g id="node4" class="node">
<title>maths/algebra/logicalset.ts</title>
<path fill="none" stroke="#c6c5fe" d="M278.33,-318.9C278.33,-318.9 108.67,-318.9 108.67,-318.9 104.83,-318.9 101,-315.06 101,-311.23 101,-311.23 101,-303.56 101,-303.56 101,-299.73 104.83,-295.9 108.67,-295.9 108.67,-295.9 278.33,-295.9 278.33,-295.9 282.17,-295.9 286,-299.73 286,-303.56 286,-303.56 286,-311.23 286,-311.23 286,-315.06 282.17,-318.9 278.33,-318.9"/>
<text text-anchor="middle" x="193.5" y="-303.7" font-family="Arial" font-size="14.00" fill="#c6c5fe">maths/algebra/logicalset.ts</text>
</g>
<!-- index.ts&#45;&gt;maths/algebra/logicalset.ts -->
<g id="edge3" class="edge">
<title>index.ts&#45;&gt;maths/algebra/logicalset.ts</title>
<path fill="none" stroke="#757575" d="M33.61,-1196.76C34.61,-1098.08 43.67,-403.5 101,-333.4 103.76,-330.02 106.93,-327.06 110.39,-324.47"/>
<polygon fill="#757575" stroke="#757575" points="112.35,-327.37 118.94,-319.07 108.62,-321.45 112.35,-327.37"/>
</g>
<!-- maths/algebra/monom.ts -->
<g id="node5" class="node">
<title>maths/algebra/monom.ts</title>
<path fill="none" stroke="#c6c5fe" d="M2127.33,-782.9C2127.33,-782.9 1969.67,-782.9 1969.67,-782.9 1965.83,-782.9 1962,-779.06 1962,-775.23 1962,-775.23 1962,-767.56 1962,-767.56 1962,-763.73 1965.83,-759.9 1969.67,-759.9 1969.67,-759.9 2127.33,-759.9 2127.33,-759.9 2131.17,-759.9 2135,-763.73 2135,-767.56 2135,-767.56 2135,-775.23 2135,-775.23 2135,-779.06 2131.17,-782.9 2127.33,-782.9"/>
<text text-anchor="middle" x="2048.5" y="-767.7" font-family="Arial" font-size="14.00" fill="#c6c5fe">maths/algebra/monom.ts</text>
</g>
<!-- index.ts&#45;&gt;maths/algebra/monom.ts -->
<g id="edge4" class="edge">
<title>index.ts&#45;&gt;maths/algebra/monom.ts</title>
<path fill="none" stroke="#757575" d="M33.52,-1196.61C33.87,-1133.57 38.86,-836.89 101,-776.4 210.65,-669.65 289.47,-732.4 442.5,-732.4 442.5,-732.4 442.5,-732.4 1441.5,-732.4 1622.05,-732.4 1832.24,-749.85 1951.61,-761.4"/>
<polygon fill="#757575" stroke="#757575" points="1951.52,-764.91 1961.81,-762.4 1952.2,-757.94 1951.52,-764.91"/>
</g>
<!-- maths/algebra/polynom.ts -->
<g id="node6" class="node">
<title>maths/algebra/polynom.ts</title>
<path fill="none" stroke="#ff6c60" d="M1805.83,-1127.9C1805.83,-1127.9 1642.17,-1127.9 1642.17,-1127.9 1638.33,-1127.9 1634.5,-1124.06 1634.5,-1120.23 1634.5,-1120.23 1634.5,-1112.56 1634.5,-1112.56 1634.5,-1108.73 1638.33,-1104.9 1642.17,-1104.9 1642.17,-1104.9 1805.83,-1104.9 1805.83,-1104.9 1809.67,-1104.9 1813.5,-1108.73 1813.5,-1112.56 1813.5,-1112.56 1813.5,-1120.23 1813.5,-1120.23 1813.5,-1124.06 1809.67,-1127.9 1805.83,-1127.9"/>
<text text-anchor="middle" x="1724" y="-1112.7" font-family="Arial" font-size="14.00" fill="#ff6c60">maths/algebra/polynom.ts</text>
</g>
<!-- index.ts&#45;&gt;maths/algebra/polynom.ts -->
<g id="edge5" class="edge">
<title>index.ts&#45;&gt;maths/algebra/polynom.ts</title>
<path fill="none" stroke="#757575" d="M45.75,-1196.73C92.85,-1153.15 268.38,-1002.4 442.5,-1002.4 442.5,-1002.4 442.5,-1002.4 924,-1002.4 1204.64,-1002.4 1535.21,-1072.17 1665.81,-1102.55"/>
<polygon fill="#757575" stroke="#757575" points="1665.07,-1105.97 1675.61,-1104.84 1666.67,-1099.15 1665.07,-1105.97"/>
</g>
<!-- maths/algebra/rational.ts -->
<g id="node7" class="node">
<title>maths/algebra/rational.ts</title>
<path fill="none" stroke="#ff6c60" d="M270.83,-1257.9C270.83,-1257.9 116.17,-1257.9 116.17,-1257.9 112.33,-1257.9 108.5,-1254.06 108.5,-1250.23 108.5,-1250.23 108.5,-1242.56 108.5,-1242.56 108.5,-1238.73 112.33,-1234.9 116.17,-1234.9 116.17,-1234.9 270.83,-1234.9 270.83,-1234.9 274.67,-1234.9 278.5,-1238.73 278.5,-1242.56 278.5,-1242.56 278.5,-1250.23 278.5,-1250.23 278.5,-1254.06 274.67,-1257.9 270.83,-1257.9"/>
<text text-anchor="middle" x="193.5" y="-1242.7" font-family="Arial" font-size="14.00" fill="#ff6c60">maths/algebra/rational.ts</text>
</g>
<!-- index.ts&#45;&gt;maths/algebra/rational.ts -->
<g id="edge6" class="edge">
<title>index.ts&#45;&gt;maths/algebra/rational.ts</title>
<path fill="none" stroke="#757575" d="M65.29,-1215.99C85.04,-1220.71 111.01,-1226.92 134.34,-1232.5"/>
<polygon fill="#757575" stroke="#757575" points="133.61,-1235.92 144.15,-1234.84 135.24,-1229.11 133.61,-1235.92"/>
</g>
<!-- maths/coefficients/fraction.ts -->
<g id="node8" class="node">
<title>maths/coefficients/fraction.ts</title>
<path fill="none" stroke="#c6c5fe" d="M2457.83,-1335.9C2457.83,-1335.9 2276.17,-1335.9 2276.17,-1335.9 2272.33,-1335.9 2268.5,-1332.06 2268.5,-1328.23 2268.5,-1328.23 2268.5,-1320.56 2268.5,-1320.56 2268.5,-1316.73 2272.33,-1312.9 2276.17,-1312.9 2276.17,-1312.9 2457.83,-1312.9 2457.83,-1312.9 2461.67,-1312.9 2465.5,-1316.73 2465.5,-1320.56 2465.5,-1320.56 2465.5,-1328.23 2465.5,-1328.23 2465.5,-1332.06 2461.67,-1335.9 2457.83,-1335.9"/>
<text text-anchor="middle" x="2367" y="-1320.7" font-family="Arial" font-size="14.00" fill="#c6c5fe">maths/coefficients/fraction.ts</text>
</g>
<!-- index.ts&#45;&gt;maths/coefficients/fraction.ts -->
<g id="edge7" class="edge">
<title>index.ts&#45;&gt;maths/coefficients/fraction.ts</title>
<path fill="none" stroke="#757575" d="M34.04,-1219.95C37.95,-1301.6 62.82,-1789.92 101,-1842.4 198.75,-1976.73 276.37,-1994.4 442.5,-1994.4 442.5,-1994.4 442.5,-1994.4 1169.5,-1994.4 1647.79,-1994.4 1863.52,-2076.39 2219,-1756.4 2345.03,-1642.94 2363.08,-1417.2 2365.6,-1346.26"/>
<polygon fill="#757575" stroke="#757575" points="2369.1,-1346.34 2365.89,-1336.24 2362.11,-1346.14 2369.1,-1346.34"/>
</g>
<!-- maths/coefficients/nthRoot.ts -->
<g id="node9" class="node">
<title>maths/coefficients/nthRoot.ts</title>
<path fill="none" stroke="#cfffac" d="M1816.33,-1527.9C1816.33,-1527.9 1631.67,-1527.9 1631.67,-1527.9 1627.83,-1527.9 1624,-1524.06 1624,-1520.23 1624,-1520.23 1624,-1512.56 1624,-1512.56 1624,-1508.73 1627.83,-1504.9 1631.67,-1504.9 1631.67,-1504.9 1816.33,-1504.9 1816.33,-1504.9 1820.17,-1504.9 1824,-1508.73 1824,-1512.56 1824,-1512.56 1824,-1520.23 1824,-1520.23 1824,-1524.06 1820.17,-1527.9 1816.33,-1527.9"/>
<text text-anchor="middle" x="1724" y="-1512.7" font-family="Arial" font-size="14.00" fill="#cfffac">maths/coefficients/nthRoot.ts</text>
</g>
<!-- index.ts&#45;&gt;maths/coefficients/nthRoot.ts -->
<g id="edge8" class="edge">
<title>index.ts&#45;&gt;maths/coefficients/nthRoot.ts</title>
<path fill="none" stroke="#757575" d="M33.43,-1219.95C33.19,-1292.2 35.01,-1681.98 101,-1776.4 164.08,-1866.65 215.18,-1861.66 322,-1888.4 592.4,-1956.08 1346.36,-1928.77 1570,-1762.4 1650.85,-1702.25 1698.86,-1585.58 1715.91,-1537.69"/>
<polygon fill="#757575" stroke="#757575" points="1719.28,-1538.66 1719.25,-1528.06 1712.67,-1536.36 1719.28,-1538.66"/>
</g>
<!-- maths/expressions/numexp.ts -->
<g id="node10" class="node">
<title>maths/expressions/numexp.ts</title>
<path fill="none" stroke="#c6c5fe" d="M1263.33,-973.9C1263.33,-973.9 1073.67,-973.9 1073.67,-973.9 1069.83,-973.9 1066,-970.06 1066,-966.23 1066,-966.23 1066,-958.56 1066,-958.56 1066,-954.73 1069.83,-950.9 1073.67,-950.9 1073.67,-950.9 1263.33,-950.9 1263.33,-950.9 1267.17,-950.9 1271,-954.73 1271,-958.56 1271,-958.56 1271,-966.23 1271,-966.23 1271,-970.06 1267.17,-973.9 1263.33,-973.9"/>
<text text-anchor="middle" x="1168.5" y="-958.7" font-family="Arial" font-size="14.00" fill="#c6c5fe">maths/expressions/numexp.ts</text>
</g>
<!-- index.ts&#45;&gt;maths/expressions/numexp.ts -->
<g id="edge9" class="edge">
<title>index.ts&#45;&gt;maths/expressions/numexp.ts</title>
<path fill="none" stroke="#757575" d="M33.19,-1196.64C32.9,-1159.68 37.38,-1044.91 101,-988.4 216.32,-885.95 288.24,-926.4 442.5,-926.4 442.5,-926.4 442.5,-926.4 693.5,-926.4 820.43,-926.4 965.94,-939.39 1061.89,-949.77"/>
<polygon fill="#757575" stroke="#757575" points="1061.56,-953.25 1071.88,-950.86 1062.32,-946.29 1061.56,-953.25"/>
</g>
<!-- maths/expressions/polynomexp.ts -->
<g id="node11" class="node">
<title>maths/expressions/polynomexp.ts</title>
<path fill="none" stroke="#c6c5fe" d="M1548.83,-935.9C1548.83,-935.9 1332.17,-935.9 1332.17,-935.9 1328.33,-935.9 1324.5,-932.06 1324.5,-928.23 1324.5,-928.23 1324.5,-920.56 1324.5,-920.56 1324.5,-916.73 1328.33,-912.9 1332.17,-912.9 1332.17,-912.9 1548.83,-912.9 1548.83,-912.9 1552.67,-912.9 1556.5,-916.73 1556.5,-920.56 1556.5,-920.56 1556.5,-928.23 1556.5,-928.23 1556.5,-932.06 1552.67,-935.9 1548.83,-935.9"/>
<text text-anchor="middle" x="1440.5" y="-920.7" font-family="Arial" font-size="14.00" fill="#c6c5fe">maths/expressions/polynomexp.ts</text>
</g>
<!-- index.ts&#45;&gt;maths/expressions/polynomexp.ts -->
<g id="edge10" class="edge">
<title>index.ts&#45;&gt;maths/expressions/polynomexp.ts</title>
<path fill="none" stroke="#757575" d="M34.42,-1196.62C38.56,-1146.72 57.24,-953.58 101,-915.4 215.83,-815.2 290.1,-884.4 442.5,-884.4 442.5,-884.4 442.5,-884.4 924,-884.4 1067.56,-884.4 1232.93,-900.01 1336.84,-911.72"/>
<polygon fill="#757575" stroke="#757575" points="1336.68,-915.23 1347.01,-912.88 1337.47,-908.27 1336.68,-915.23"/>
</g>
<!-- maths/geometry/circle.ts -->
<g id="node12" class="node">
<title>maths/geometry/circle.ts</title>
<path fill="none" stroke="#c6c5fe" d="M521.33,-1678.9C521.33,-1678.9 365.67,-1678.9 365.67,-1678.9 361.83,-1678.9 358,-1675.06 358,-1671.23 358,-1671.23 358,-1663.56 358,-1663.56 358,-1659.73 361.83,-1655.9 365.67,-1655.9 365.67,-1655.9 521.33,-1655.9 521.33,-1655.9 525.17,-1655.9 529,-1659.73 529,-1663.56 529,-1663.56 529,-1671.23 529,-1671.23 529,-1675.06 525.17,-1678.9 521.33,-1678.9"/>
<text text-anchor="middle" x="443.5" y="-1663.7" font-family="Arial" font-size="14.00" fill="#c6c5fe">maths/geometry/circle.ts</text>
</g>
<!-- index.ts&#45;&gt;maths/geometry/circle.ts -->
<g id="edge11" class="edge">
<title>index.ts&#45;&gt;maths/geometry/circle.ts</title>
<path fill="none" stroke="#757575" d="M34.52,-1220.2C39.22,-1272.13 60.32,-1479.71 101,-1528.4 162.99,-1602.59 270.71,-1637.62 348.62,-1653.87"/>
<polygon fill="#757575" stroke="#757575" points="347.95,-1657.31 358.44,-1655.86 349.34,-1650.45 347.95,-1657.31"/>
</g>
<!-- maths/geometry/line.ts -->
<g id="node13" class="node">
<title>maths/geometry/line.ts</title>
<path fill="none" stroke="#ff6c60" d="M1240.33,-1605.9C1240.33,-1605.9 1096.67,-1605.9 1096.67,-1605.9 1092.83,-1605.9 1089,-1602.06 1089,-1598.23 1089,-1598.23 1089,-1590.56 1089,-1590.56 1089,-1586.73 1092.83,-1582.9 1096.67,-1582.9 1096.67,-1582.9 1240.33,-1582.9 1240.33,-1582.9 1244.17,-1582.9 1248,-1586.73 1248,-1590.56 1248,-1590.56 1248,-1598.23 1248,-1598.23 1248,-1602.06 1244.17,-1605.9 1240.33,-1605.9"/>
<text text-anchor="middle" x="1168.5" y="-1590.7" font-family="Arial" font-size="14.00" fill="#ff6c60">maths/geometry/line.ts</text>
</g>
<!-- index.ts&#45;&gt;maths/geometry/line.ts -->
<g id="edge12" class="edge">
<title>index.ts&#45;&gt;maths/geometry/line.ts</title>
<path fill="none" stroke="#757575" d="M45.07,-1220.27C57.87,-1232.92 79.53,-1252.94 101,-1266.4 191.74,-1323.26 221,-1326.8 322,-1362.4 609.4,-1463.67 964.36,-1548.43 1105.46,-1580.57"/>
<polygon fill="#757575" stroke="#757575" points="1104.72,-1583.99 1115.24,-1582.79 1106.27,-1577.16 1104.72,-1583.99"/>
</g>
<!-- maths/geometry/point.ts -->
<g id="node14" class="node">
<title>maths/geometry/point.ts</title>
<path fill="none" stroke="#ff6c60" d="M999.33,-1699.9C999.33,-1699.9 846.67,-1699.9 846.67,-1699.9 842.83,-1699.9 839,-1696.06 839,-1692.23 839,-1692.23 839,-1684.56 839,-1684.56 839,-1680.73 842.83,-1676.9 846.67,-1676.9 846.67,-1676.9 999.33,-1676.9 999.33,-1676.9 1003.17,-1676.9 1007,-1680.73 1007,-1684.56 1007,-1684.56 1007,-1692.23 1007,-1692.23 1007,-1696.06 1003.17,-1699.9 999.33,-1699.9"/>
<text text-anchor="middle" x="923" y="-1684.7" font-family="Arial" font-size="14.00" fill="#ff6c60">maths/geometry/point.ts</text>
</g>
<!-- index.ts&#45;&gt;maths/geometry/point.ts -->
<g id="edge13" class="edge">
<title>index.ts&#45;&gt;maths/geometry/point.ts</title>
<path fill="none" stroke="#757575" d="M34.02,-1219.91C36.87,-1277.81 52.21,-1536.8 101,-1597.4 290.94,-1833.28 726.2,-1741.91 872.79,-1702.69"/>
<polygon fill="#757575" stroke="#757575" points="874.1,-1705.96 882.83,-1699.97 872.27,-1699.21 874.1,-1705.96"/>
</g>
<!-- maths/geometry/triangle.ts -->
<g id="node15" class="node">
<title>maths/geometry/triangle.ts</title>
<path fill="none" stroke="#c6c5fe" d="M776.33,-1619.9C776.33,-1619.9 608.67,-1619.9 608.67,-1619.9 604.83,-1619.9 601,-1616.06 601,-1612.23 601,-1612.23 601,-1604.56 601,-1604.56 601,-1600.73 604.83,-1596.9 608.67,-1596.9 608.67,-1596.9 776.33,-1596.9 776.33,-1596.9 780.17,-1596.9 784,-1600.73 784,-1604.56 784,-1604.56 784,-1612.23 784,-1612.23 784,-1616.06 780.17,-1619.9 776.33,-1619.9"/>
<text text-anchor="middle" x="692.5" y="-1604.7" font-family="Arial" font-size="14.00" fill="#c6c5fe">maths/geometry/triangle.ts</text>
</g>
<!-- index.ts&#45;&gt;maths/geometry/triangle.ts -->
<g id="edge14" class="edge">
<title>index.ts&#45;&gt;maths/geometry/triangle.ts</title>
<path fill="none" stroke="#757575" d="M34.31,-1219.9C37.19,-1252.27 49.75,-1345.15 101,-1396.4 235.37,-1530.76 460.83,-1580.45 590.83,-1598.47"/>
<polygon fill="#757575" stroke="#757575" points="590.41,-1601.94 600.79,-1599.81 591.35,-1595.01 590.41,-1601.94"/>
</g>
<!-- maths/geometry/vector.ts -->
<g id="node16" class="node">
<title>maths/geometry/vector.ts</title>
<path fill="none" stroke="#ff6c60" d="M1520.83,-1753.9C1520.83,-1753.9 1360.17,-1753.9 1360.17,-1753.9 1356.33,-1753.9 1352.5,-1750.06 1352.5,-1746.23 1352.5,-1746.23 1352.5,-1738.56 1352.5,-1738.56 1352.5,-1734.73 1356.33,-1730.9 1360.17,-1730.9 1360.17,-1730.9 1520.83,-1730.9 1520.83,-1730.9 1524.67,-1730.9 1528.5,-1734.73 1528.5,-1738.56 1528.5,-1738.56 1528.5,-1746.23 1528.5,-1746.23 1528.5,-1750.06 1524.67,-1753.9 1520.83,-1753.9"/>
<text text-anchor="middle" x="1440.5" y="-1738.7" font-family="Arial" font-size="14.00" fill="#ff6c60">maths/geometry/vector.ts</text>
</g>
<!-- index.ts&#45;&gt;maths/geometry/vector.ts -->
<g id="edge15" class="edge">
<title>index.ts&#45;&gt;maths/geometry/vector.ts</title>
<path fill="none" stroke="#757575" d="M33.88,-1220.17C36.18,-1284.53 49.78,-1593.76 101,-1671.4 198.99,-1819.93 264.55,-1880.4 442.5,-1880.4 442.5,-1880.4 442.5,-1880.4 693.5,-1880.4 954.2,-1880.4 1021.98,-1866.22 1275,-1803.4 1320.81,-1792.02 1371.44,-1772.06 1404.27,-1758.08"/>
<polygon fill="#757575" stroke="#757575" points="1406.06,-1761.12 1413.86,-1753.95 1403.29,-1754.69 1406.06,-1761.12"/>
</g>
<!-- maths/numeric.ts -->
<g id="node17" class="node">
<title>maths/numeric.ts</title>
<path fill="none" stroke="#cfffac" d="M2707.83,-1679.9C2707.83,-1679.9 2599.17,-1679.9 2599.17,-1679.9 2595.33,-1679.9 2591.5,-1676.06 2591.5,-1672.23 2591.5,-1672.23 2591.5,-1664.56 2591.5,-1664.56 2591.5,-1660.73 2595.33,-1656.9 2599.17,-1656.9 2599.17,-1656.9 2707.83,-1656.9 2707.83,-1656.9 2711.67,-1656.9 2715.5,-1660.73 2715.5,-1664.56 2715.5,-1664.56 2715.5,-1672.23 2715.5,-1672.23 2715.5,-1676.06 2711.67,-1679.9 2707.83,-1679.9"/>
<text text-anchor="middle" x="2653.5" y="-1664.7" font-family="Arial" font-size="14.00" fill="#cfffac">maths/numeric.ts</text>
</g>
<!-- index.ts&#45;&gt;maths/numeric.ts -->
<g id="edge16" class="edge">
<title>index.ts&#45;&gt;maths/numeric.ts</title>
<path fill="none" stroke="#757575" d="M33.85,-1220.07C36.61,-1308.26 55.84,-1868.04 101,-1926.4 198.26,-2052.08 283.58,-2032.4 442.5,-2032.4 442.5,-2032.4 442.5,-2032.4 2049.5,-2032.4 2246.77,-2032.4 2317.47,-2033.64 2479,-1920.4 2566.52,-1859.03 2623.65,-1738.43 2644.09,-1689.63"/>
<polygon fill="#757575" stroke="#757575" points="2647.44,-1690.69 2648,-1680.11 2640.97,-1688.03 2647.44,-1690.69"/>
</g>
<!-- maths/randomization/random.ts -->
<g id="node18" class="node">
<title>maths/randomization/random.ts</title>
<path fill="none" stroke="#ff6c60" d="M1267.33,-548.9C1267.33,-548.9 1069.67,-548.9 1069.67,-548.9 1065.83,-548.9 1062,-545.06 1062,-541.23 1062,-541.23 1062,-533.56 1062,-533.56 1062,-529.73 1065.83,-525.9 1069.67,-525.9 1069.67,-525.9 1267.33,-525.9 1267.33,-525.9 1271.17,-525.9 1275,-529.73 1275,-533.56 1275,-533.56 1275,-541.23 1275,-541.23 1275,-545.06 1271.17,-548.9 1267.33,-548.9"/>
<text text-anchor="middle" x="1168.5" y="-533.7" font-family="Arial" font-size="14.00" fill="#ff6c60">maths/randomization/random.ts</text>
</g>
<!-- index.ts&#45;&gt;maths/randomization/random.ts -->
<g id="edge17" class="edge">
<title>index.ts&#45;&gt;maths/randomization/random.ts</title>
<path fill="none" stroke="#757575" d="M33.46,-1196.58C33.46,-1129.15 36.72,-793.37 101,-718.4 204.1,-598.14 284.1,-616.4 442.5,-616.4 442.5,-616.4 442.5,-616.4 693.5,-616.4 849.38,-616.4 1030.23,-574.31 1116.55,-551.57"/>
<polygon fill="#757575" stroke="#757575" points="1117.59,-554.92 1126.36,-548.97 1115.79,-548.15 1117.59,-554.92"/>
</g>
<!-- maths/shutingyard.ts -->
<g id="node19" class="node">
<title>maths/shutingyard.ts</title>
<path fill="none" stroke="#cfffac" d="M2432.33,-691.9C2432.33,-691.9 2301.67,-691.9 2301.67,-691.9 2297.83,-691.9 2294,-688.06 2294,-684.23 2294,-684.23 2294,-676.56 2294,-676.56 2294,-672.73 2297.83,-668.9 2301.67,-668.9 2301.67,-668.9 2432.33,-668.9 2432.33,-668.9 2436.17,-668.9 2440,-672.73 2440,-676.56 2440,-676.56 2440,-684.23 2440,-684.23 2440,-688.06 2436.17,-691.9 2432.33,-691.9"/>
<text text-anchor="middle" x="2367" y="-676.7" font-family="Arial" font-size="14.00" fill="#cfffac">maths/shutingyard.ts</text>
</g>
<!-- index.ts&#45;&gt;maths/shutingyard.ts -->
<g id="edge18" class="edge">
<title>index.ts&#45;&gt;maths/shutingyard.ts</title>
<path fill="none" stroke="#757575" d="M33.62,-1196.48C34.54,-1121.94 42.21,-719.46 101,-614.4 195.08,-446.27 249.84,-347.4 442.5,-347.4 442.5,-347.4 442.5,-347.4 1725,-347.4 1834.9,-347.4 2127.52,-309.5 2219,-370.4 2321.95,-438.92 2354.6,-600.19 2363.26,-658.71"/>
<polygon fill="#757575" stroke="#757575" points="2359.81,-659.26 2364.65,-668.69 2366.74,-658.3 2359.81,-659.26"/>
</g>
<!-- maths/algebra/equation.ts&#45;&gt;maths/algebra/monom.ts -->
<g id="edge19" class="edge">
<title>maths/algebra/equation.ts&#45;&gt;maths/algebra/monom.ts</title>
<path fill="none" stroke="#757575" d="M1478.62,-1338.86C1555.18,-1313.46 1732.59,-1246.06 1842,-1136.4 1949.56,-1028.58 2018.67,-852.89 2040.25,-792.54"/>
<polygon fill="#757575" stroke="#757575" points="2043.6,-793.55 2043.62,-782.95 2037,-791.22 2043.6,-793.55"/>
</g>
<!-- maths/algebra/equation.ts&#45;&gt;maths/algebra/polynom.ts -->
<g id="edge20" class="edge">
<title>maths/algebra/equation.ts&#45;&gt;maths/algebra/polynom.ts</title>
<path fill="none" stroke="#757575" d="M1459.38,-1338.83C1485.42,-1326.84 1534.54,-1307.97 1570,-1281.4 1627.62,-1238.21 1679.47,-1170.34 1705.44,-1136.5"/>
<polygon fill="#757575" stroke="#757575" points="1708.44,-1138.35 1711.77,-1128.29 1702.89,-1134.07 1708.44,-1138.35"/>
</g>
<!-- maths/algebra/equation.ts&#45;&gt;maths/coefficients/fraction.ts -->
<g id="edge21" class="edge">
<title>maths/algebra/equation.ts&#45;&gt;maths/coefficients/fraction.ts</title>
<path fill="none" stroke="#757575" d="M1530.14,-1347.9C1700.58,-1343.11 2073.42,-1332.62 2258.02,-1327.43"/>
<polygon fill="#757575" stroke="#757575" points="2258.39,-1330.92 2268.29,-1327.14 2258.2,-1323.93 2258.39,-1330.92"/>
</g>
<!-- maths/algebra/equation.ts&#45;&gt;maths/coefficients/nthRoot.ts -->
<g id="edge22" class="edge">
<title>maths/algebra/equation.ts&#45;&gt;maths/coefficients/nthRoot.ts</title>
<path fill="none" stroke="#757575" d="M1461.29,-1362.07C1510.25,-1390.94 1637.19,-1465.79 1694.35,-1499.5"/>
<polygon fill="#757575" stroke="#757575" points="1692.84,-1502.67 1703.23,-1504.74 1696.39,-1496.64 1692.84,-1502.67"/>
</g>
<!-- maths/algebra/equation.ts&#45;&gt;maths/numeric.ts -->
<g id="edge23" class="edge">
<title>maths/algebra/equation.ts&#45;&gt;maths/numeric.ts</title>
<path fill="none" stroke="#757575" d="M1485.32,-1361.9C1671.19,-1410.71 2394.33,-1600.6 2598.53,-1654.22"/>
<polygon fill="#757575" stroke="#757575" points="2597.86,-1657.67 2608.42,-1656.82 2599.64,-1650.9 2597.86,-1657.67"/>
</g>
<!-- maths/algebra/linearSystem.ts&#45;&gt;maths/algebra/equation.ts -->
<g id="edge24" class="edge">
<title>maths/algebra/linearSystem.ts&#45;&gt;maths/algebra/equation.ts</title>
<path fill="none" stroke="#757575" d="M935.39,-856.04C992.53,-914.51 1246.36,-1174.94 1275,-1216.4 1295.79,-1246.49 1284.93,-1264.74 1311,-1290.4 1332.32,-1311.38 1362.34,-1325.95 1388,-1335.48"/>
<polygon fill="#757575" stroke="#757575" points="1387,-1338.84 1397.6,-1338.89 1389.35,-1332.25 1387,-1338.84"/>
</g>
<!-- maths/algebra/linearSystem.ts&#45;&gt;maths/algebra/monom.ts -->
<g id="edge25" class="edge">
<title>maths/algebra/linearSystem.ts&#45;&gt;maths/algebra/monom.ts</title>
<path fill="none" stroke="#757575" d="M1026.09,-835.23C1038.19,-834.23 1050.37,-833.26 1062,-832.4 1408.37,-806.68 1495.35,-806.03 1842,-784.4 1877.8,-782.16 1917.11,-779.68 1951.68,-777.49"/>
<polygon fill="#757575" stroke="#757575" points="1952.01,-780.98 1961.77,-776.85 1951.56,-773.99 1952.01,-780.98"/>
</g>
<!-- maths/algebra/linearSystem.ts&#45;&gt;maths/algebra/polynom.ts -->
<g id="edge26" class="edge">
<title>maths/algebra/linearSystem.ts&#45;&gt;maths/algebra/polynom.ts</title>
<path fill="none" stroke="#757575" d="M970.94,-855.91C1100.08,-887.86 1458.41,-978.41 1570,-1026.4 1617.46,-1046.81 1668.38,-1079.08 1697.87,-1098.93"/>
<polygon fill="#757575" stroke="#757575" points="1696.07,-1101.94 1706.31,-1104.66 1700,-1096.15 1696.07,-1101.94"/>
</g>
<!-- maths/algebra/linearSystem.ts&#45;&gt;maths/coefficients/fraction.ts -->
<g id="edge27" class="edge">
<title>maths/algebra/linearSystem.ts&#45;&gt;maths/coefficients/fraction.ts</title>
<path fill="none" stroke="#757575" d="M1026,-843.6C1314.96,-842.24 2124.29,-844.84 2219,-915.4 2220.04,-916.17 2328.41,-1219.22 2358.39,-1303.1"/>
<polygon fill="#757575" stroke="#757575" points="2355.13,-1304.38 2361.79,-1312.62 2361.72,-1302.03 2355.13,-1304.38"/>
</g>
<!-- maths/algebra/linearSystem.ts&#45;&gt;maths/randomization/random.ts -->
<g id="edge28" class="edge">
<title>maths/algebra/linearSystem.ts&#45;&gt;maths/randomization/random.ts</title>
<path fill="none" stroke="#757575" d="M933.25,-832.74C969.94,-786.48 1105.48,-615.59 1151.83,-557.15"/>
<polygon fill="#757575" stroke="#757575" points="1154.77,-559.08 1158.24,-549.07 1149.29,-554.73 1154.77,-559.08"/>
</g>
<!-- maths/algebra/logicalset.ts&#45;&gt;maths/shutingyard.ts -->
<g id="edge29" class="edge">
<title>maths/algebra/logicalset.ts&#45;&gt;maths/shutingyard.ts</title>
<path fill="none" stroke="#757575" d="M286.1,-307.98C385.82,-308.57 549.99,-309.4 691.5,-309.4 691.5,-309.4 691.5,-309.4 1725,-309.4 1834.91,-309.4 2128.87,-270.49 2219,-333.4 2276.42,-373.47 2340.59,-589.12 2360.08,-658.72"/>
<polygon fill="#757575" stroke="#757575" points="2356.77,-659.89 2362.81,-668.59 2363.51,-658.02 2356.77,-659.89"/>
</g>
<!-- maths/algebra/monom.ts&#45;&gt;maths/coefficients/fraction.ts -->
<g id="edge30" class="edge">
<title>maths/algebra/monom.ts&#45;&gt;maths/coefficients/fraction.ts</title>
<path fill="none" stroke="#757575" d="M2081.72,-782.93C2119.82,-798.15 2182.64,-828.52 2219,-874.4 2327.81,-1011.67 2357.33,-1232.29 2364.17,-1302.32"/>
<polygon fill="#757575" stroke="#757575" points="2360.71,-1302.93 2365.11,-1312.57 2367.68,-1302.29 2360.71,-1302.93"/>
</g>
<!-- maths/algebra/monom.ts&#45;&gt;maths/numeric.ts -->
<g id="edge31" class="edge">
<title>maths/algebra/monom.ts&#45;&gt;maths/numeric.ts</title>
<path fill="none" stroke="#757575" d="M2073.86,-782.91C2147.75,-819.17 2370.82,-938.62 2479,-1107.4 2598.56,-1293.91 2640.16,-1568.02 2650,-1646.61"/>
<polygon fill="#757575" stroke="#757575" points="2646.55,-1647.25 2651.23,-1656.75 2653.5,-1646.4 2646.55,-1647.25"/>
</g>
<!-- maths/algebra/monom.ts&#45;&gt;maths/shutingyard.ts -->
<g id="edge32" class="edge">
<title>maths/algebra/monom.ts&#45;&gt;maths/shutingyard.ts</title>
<path fill="none" stroke="#757575" d="M2089.58,-759.87C2147.22,-743.3 2253.42,-712.76 2316.07,-694.75"/>
<polygon fill="#757575" stroke="#757575" points="2317.1,-698.1 2325.74,-691.97 2315.16,-691.37 2317.1,-698.1"/>
</g>
<!-- maths/algebra/polynom.ts&#45;&gt;maths/algebra/equation.ts -->
<g id="edge33" class="edge">
<title>maths/algebra/polynom.ts&#45;&gt;maths/algebra/equation.ts</title>
<path fill="none" stroke="#757575" d="M1717.81,-1128.03C1700.08,-1160.05 1639.2,-1247.53 1570,-1299.4 1550.69,-1313.87 1527.34,-1326.05 1505.86,-1335.07"/>
<polygon fill="#757575" stroke="#757575" points="1504.43,-1331.88 1496.47,-1338.87 1507.05,-1338.37 1504.43,-1331.88"/>
</g>
<!-- maths/algebra/polynom.ts&#45;&gt;maths/algebra/monom.ts -->
<g id="edge34" class="edge">
<title>maths/algebra/polynom.ts&#45;&gt;maths/algebra/monom.ts</title>
<path fill="none" stroke="#757575" d="M1728.19,-1104.68C1740.28,-1062.36 1787.3,-915.7 1878,-836.4 1906.61,-811.38 1945.88,-795.51 1979.42,-785.72"/>
<polygon fill="#757575" stroke="#757575" points="1980.48,-789.05 1989.17,-782.99 1978.59,-782.31 1980.48,-789.05"/>
</g>
<!-- maths/algebra/polynom.ts&#45;&gt;maths/coefficients/fraction.ts -->
<g id="edge35" class="edge">
<title>maths/algebra/polynom.ts&#45;&gt;maths/coefficients/fraction.ts</title>
<path fill="none" stroke="#757575" d="M1812.47,-1127.9C1944.42,-1145.66 2182.89,-1179.46 2219,-1196.4 2274.77,-1222.55 2325.55,-1276.23 2350.24,-1305.06"/>
<polygon fill="#757575" stroke="#757575" points="2347.66,-1307.42 2356.77,-1312.82 2353.01,-1302.92 2347.66,-1307.42"/>
</g>
<!-- maths/algebra/polynom.ts&#45;&gt;maths/numeric.ts -->
<g id="edge36" class="edge">
<title>maths/algebra/polynom.ts&#45;&gt;maths/numeric.ts</title>
<path fill="none" stroke="#757575" d="M1813.5,-1105.99C1914.25,-1097.27 2082.53,-1092.27 2219,-1135.4 2350.19,-1176.85 2388.24,-1200 2479,-1303.4 2575.52,-1413.35 2629.91,-1586.35 2646.77,-1646.73"/>
<polygon fill="#757575" stroke="#757575" points="2643.47,-1647.93 2649.48,-1656.66 2650.22,-1646.09 2643.47,-1647.93"/>
</g>
<!-- maths/algebra/polynom.ts&#45;&gt;maths/shutingyard.ts -->
<g id="edge37" class="edge">
<title>maths/algebra/polynom.ts&#45;&gt;maths/shutingyard.ts</title>
<path fill="none" stroke="#757575" d="M1749.49,-1104.79C1823.89,-1068.96 2052.37,-954.76 2219,-826.4 2270.87,-786.44 2323.3,-729.49 2349.27,-699.91"/>
<polygon fill="#757575" stroke="#757575" points="2352.23,-701.84 2356.16,-692 2346.95,-697.24 2352.23,-701.84"/>
</g>
<!-- maths/algebra/rational.ts&#45;&gt;maths/algebra/equation.ts -->
<g id="edge38" class="edge">
<title>maths/algebra/rational.ts&#45;&gt;maths/algebra/equation.ts</title>
<path fill="none" stroke="#757575" d="M278.84,-1249.48C461.17,-1256.8 905.4,-1278.08 1275,-1323.4 1305.19,-1327.1 1338.32,-1332.31 1366.89,-1337.17"/>
<polygon fill="#757575" stroke="#757575" points="1366.34,-1340.63 1376.79,-1338.87 1367.53,-1333.73 1366.34,-1340.63"/>
</g>
<!-- maths/algebra/rational.ts&#45;&gt;maths/algebra/monom.ts -->
<g id="edge39" class="edge">
<title>maths/algebra/rational.ts&#45;&gt;maths/algebra/monom.ts</title>
<path fill="none" stroke="#757575" d="M205.85,-1234.83C263.98,-1176.55 536.59,-914.14 820,-823.4 1029.88,-756.19 1700.69,-763.6 1951.59,-768.95"/>
<polygon fill="#757575" stroke="#757575" points="1951.7,-772.46 1961.78,-769.18 1951.85,-765.46 1951.7,-772.46"/>
</g>
<!-- maths/algebra/rational.ts&#45;&gt;maths/algebra/polynom.ts -->
<g id="edge40" class="edge">
<title>maths/algebra/rational.ts&#45;&gt;maths/algebra/polynom.ts</title>
<path fill="none" stroke="#757575" d="M229.69,-1234.88C299.63,-1212.45 461.45,-1162.76 601,-1136.4 973.33,-1066.06 1427.54,-1091.05 1624.3,-1107.12"/>
<polygon fill="#757575" stroke="#757575" points="1624.07,-1110.62 1634.33,-1107.95 1624.65,-1103.64 1624.07,-1110.62"/>
</g>
<!-- maths/algebra/rational.ts&#45;&gt;maths/coefficients/fraction.ts -->
<g id="edge42" class="edge">
<title>maths/algebra/rational.ts&#45;&gt;maths/coefficients/fraction.ts</title>
<path fill="none" stroke="#757575" d="M278.76,-1245.63C353.87,-1245.24 466.79,-1245.37 565,-1248.4 896.92,-1258.63 979.24,-1275.71 1311,-1290.4 1657,-1305.71 2067.12,-1316.94 2258.12,-1321.77"/>
<polygon fill="#757575" stroke="#757575" points="2258.07,-1325.27 2268.16,-1322.03 2258.25,-1318.28 2258.07,-1325.27"/>
</g>
<!-- maths/algebra/study/rationalStudy.ts -->
<g id="node20" class="node">
<title>maths/algebra/study/rationalStudy.ts</title>
<path fill="none" stroke="#ff6c60" d="M557.33,-1353.9C557.33,-1353.9 329.67,-1353.9 329.67,-1353.9 325.83,-1353.9 322,-1350.06 322,-1346.23 322,-1346.23 322,-1338.56 322,-1338.56 322,-1334.73 325.83,-1330.9 329.67,-1330.9 329.67,-1330.9 557.33,-1330.9 557.33,-1330.9 561.17,-1330.9 565,-1334.73 565,-1338.56 565,-1338.56 565,-1346.23 565,-1346.23 565,-1350.06 561.17,-1353.9 557.33,-1353.9"/>
<text text-anchor="middle" x="443.5" y="-1338.7" font-family="Arial" font-size="14.00" fill="#ff6c60">maths/algebra/study/rationalStudy.ts</text>
</g>
<!-- maths/algebra/rational.ts&#45;&gt;maths/algebra/study/rationalStudy.ts -->
<g id="edge41" class="edge">
<title>maths/algebra/rational.ts&#45;&gt;maths/algebra/study/rationalStudy.ts</title>
<path fill="none" stroke="#757575" d="M222.73,-1257.9C247.83,-1271.81 286.04,-1293.97 322,-1307.4 347.5,-1316.91 377.4,-1323.39 401.04,-1328.61"/>
<polygon fill="#757575" stroke="#757575" points="400.57,-1332.09 411.09,-1330.84 402.09,-1325.25 400.57,-1332.09"/>
</g>
<!-- maths/coefficients/fraction.ts&#45;&gt;maths/numeric.ts -->
<g id="edge53" class="edge">
<title>maths/coefficients/fraction.ts&#45;&gt;maths/numeric.ts</title>
<path fill="none" stroke="#757575" d="M2377.79,-1336.24C2419.6,-1386.79 2583.38,-1584.82 2636.07,-1648.53"/>
<polygon fill="#757575" stroke="#757575" points="2633.68,-1651.13 2642.75,-1656.6 2639.07,-1646.67 2633.68,-1651.13"/>
</g>
<!-- maths/expressions/numexp.ts&#45;&gt;maths/coefficients/fraction.ts -->
<g id="edge78" class="edge">
<title>maths/expressions/numexp.ts&#45;&gt;maths/coefficients/fraction.ts</title>
<path fill="none" stroke="#757575" d="M1271.01,-955.41C1468.5,-946.64 1911.91,-950.9 2219,-1134.4 2288.31,-1175.81 2336.86,-1263.24 2356.41,-1303.41"/>
<polygon fill="#757575" stroke="#757575" points="2353.3,-1305.02 2360.75,-1312.55 2359.62,-1302.01 2353.3,-1305.02"/>
</g>
<!-- maths/expressions/numexp.ts&#45;&gt;maths/shutingyard.ts -->
<g id="edge79" class="edge">
<title>maths/expressions/numexp.ts&#45;&gt;maths/shutingyard.ts</title>
<path fill="none" stroke="#757575" d="M1192.38,-950.67C1219.83,-937.12 1267.59,-915.18 1311,-903.4 1556.44,-836.79 1625.47,-856.49 1878,-826.4 2029.28,-808.36 2077.21,-847.13 2219,-791.4 2271.87,-770.62 2322.14,-725.23 2347.97,-699.39"/>
<polygon fill="#757575" stroke="#757575" points="2350.67,-701.64 2355.17,-692.05 2345.67,-696.74 2350.67,-701.64"/>
</g>
<!-- maths/expressions/polynomexp.ts&#45;&gt;maths/algebra/polynom.ts -->
<g id="edge82" class="edge">
<title>maths/expressions/polynomexp.ts&#45;&gt;maths/algebra/polynom.ts</title>
<path fill="none" stroke="#757575" d="M1469.34,-935.98C1496.08,-947.63 1537.15,-966.9 1570,-988.4 1621.7,-1022.22 1675.64,-1071.06 1703.59,-1097.56"/>
<polygon fill="#757575" stroke="#757575" points="1701.44,-1100.34 1711.09,-1104.72 1706.28,-1095.28 1701.44,-1100.34"/>
</g>
<!-- maths/expressions/polynomexp.ts&#45;&gt;maths/coefficients/fraction.ts -->
<g id="edge83" class="edge">
<title>maths/expressions/polynomexp.ts&#45;&gt;maths/coefficients/fraction.ts</title>
<path fill="none" stroke="#757575" d="M1556.63,-921.37C1759.98,-917.03 2166.36,-913.22 2219,-950.4 2234.55,-961.37 2330.42,-1225.43 2358.36,-1303.1"/>
<polygon fill="#757575" stroke="#757575" points="2355.16,-1304.55 2361.84,-1312.77 2361.75,-1302.18 2355.16,-1304.55"/>
</g>
<!-- maths/geometry/circle.ts&#45;&gt;maths/algebra/equation.ts -->
<g id="edge84" class="edge">
<title>maths/geometry/circle.ts&#45;&gt;maths/algebra/equation.ts</title>
<path fill="none" stroke="#757575" d="M493.2,-1678.96C593.66,-1701.05 830.86,-1744 1026,-1708.4 1142.37,-1687.16 1183.56,-1689.44 1275,-1614.4 1359.2,-1545.29 1412.83,-1421.2 1431.8,-1371.66"/>
<polygon fill="#757575" stroke="#757575" points="1435.18,-1372.61 1435.41,-1362.01 1428.63,-1370.15 1435.18,-1372.61"/>
</g>
<!-- maths/geometry/circle.ts&#45;&gt;maths/algebra/monom.ts -->
<g id="edge85" class="edge">
<title>maths/geometry/circle.ts&#45;&gt;maths/algebra/monom.ts</title>
<path fill="none" stroke="#757575" d="M463.55,-1655.65C492.33,-1638.37 549.05,-1606.15 601,-1587.4 1141.29,-1392.36 1448.75,-1645.1 1842,-1226.4 1969.01,-1091.16 2027.3,-863.98 2042.99,-793.15"/>
<polygon fill="#757575" stroke="#757575" points="2046.45,-793.68 2045.14,-783.16 2039.61,-792.2 2046.45,-793.68"/>
</g>
<!-- maths/geometry/circle.ts&#45;&gt;maths/algebra/polynom.ts -->
<g id="edge86" class="edge">
<title>maths/geometry/circle.ts&#45;&gt;maths/algebra/polynom.ts</title>
<path fill="none" stroke="#757575" d="M449.43,-1655.73C465.52,-1619 520.23,-1504.6 601,-1444.4 854.21,-1255.66 976.68,-1323.03 1275,-1219.4 1291.07,-1213.81 1294.47,-1210.41 1311,-1206.4 1423.81,-1178.96 1457.25,-1200.07 1570,-1172.4 1611.4,-1162.23 1657.07,-1144.63 1687.64,-1131.87"/>
<polygon fill="#757575" stroke="#757575" points="1689.16,-1135.03 1697.02,-1127.91 1686.44,-1128.58 1689.16,-1135.03"/>
</g>
<!-- maths/geometry/circle.ts&#45;&gt;maths/coefficients/fraction.ts -->
<g id="edge87" class="edge">
<title>maths/geometry/circle.ts&#45;&gt;maths/coefficients/fraction.ts</title>
<path fill="none" stroke="#757575" d="M456.66,-1679.16C481.49,-1702.42 540.76,-1754.11 601,-1778.4 692.29,-1815.2 721.84,-1804.04 820,-1811.4 911.3,-1818.24 934.46,-1812.87 1026,-1811.4 1136.71,-1809.62 1164.47,-1809.97 1275,-1803.4 1327.55,-1800.27 2177.14,-1753.31 2219,-1721.4 2250.89,-1697.08 2335.24,-1425.71 2359.43,-1346.18"/>
<polygon fill="#757575" stroke="#757575" points="2362.88,-1346.86 2362.43,-1336.27 2356.18,-1344.83 2362.88,-1346.86"/>
</g>
<!-- maths/geometry/circle.ts&#45;&gt;maths/geometry/line.ts -->
<g id="edge88" class="edge">
<title>maths/geometry/circle.ts&#45;&gt;maths/geometry/line.ts</title>
<path fill="none" stroke="#757575" d="M529.43,-1661.73C642.85,-1653.76 849.94,-1637.78 1026,-1616.4 1046.57,-1613.9 1068.75,-1610.69 1089.31,-1607.51"/>
<polygon fill="#757575" stroke="#757575" points="1089.92,-1610.95 1099.25,-1605.95 1088.83,-1604.04 1089.92,-1610.95"/>
</g>
<!-- maths/geometry/circle.ts&#45;&gt;maths/geometry/point.ts -->
<g id="edge89" class="edge">
<title>maths/geometry/circle.ts&#45;&gt;maths/geometry/point.ts</title>
<path fill="none" stroke="#757575" d="M529.04,-1671.11C613.04,-1674.81 741.55,-1680.46 828.54,-1684.29"/>
<polygon fill="#757575" stroke="#757575" points="828.53,-1687.79 838.67,-1684.73 828.84,-1680.79 828.53,-1687.79"/>
</g>
<!-- maths/geometry/circle.ts&#45;&gt;maths/geometry/triangle.ts -->
<g id="edge90" class="edge">
<title>maths/geometry/circle.ts&#45;&gt;maths/geometry/triangle.ts</title>
<path fill="none" stroke="#757575" d="M492.71,-1655.88C532.87,-1646.29 590.21,-1632.59 633,-1622.37"/>
<polygon fill="#757575" stroke="#757575" points="634.08,-1625.71 642.99,-1619.98 632.45,-1618.9 634.08,-1625.71"/>
</g>
<!-- maths/geometry/circle.ts&#45;&gt;maths/geometry/vector.ts -->
<g id="edge91" class="edge">
<title>maths/geometry/circle.ts&#45;&gt;maths/geometry/vector.ts</title>
<path fill="none" stroke="#757575" d="M462.9,-1679.01C491.28,-1696.26 548.04,-1728.17 601,-1742.4 890.71,-1820.21 976.76,-1810.65 1275,-1778.4 1313.55,-1774.23 1356.32,-1764.71 1388.58,-1756.51"/>
<polygon fill="#757575" stroke="#757575" points="1389.86,-1759.8 1398.67,-1753.9 1388.11,-1753.02 1389.86,-1759.8"/>
</g>
<!-- maths/geometry/circle.ts&#45;&gt;maths/numeric.ts -->
<g id="edge92" class="edge">
<title>maths/geometry/circle.ts&#45;&gt;maths/numeric.ts</title>
<path fill="none" stroke="#757575" d="M454.11,-1679.29C476.72,-1706.48 536.3,-1773.51 601,-1808.4 830.06,-1931.88 907.27,-1956.4 1167.5,-1956.4 1167.5,-1956.4 1167.5,-1956.4 2049.5,-1956.4 2244.81,-1956.4 2310.33,-1961.87 2479,-1863.4 2555.08,-1818.98 2615.67,-1729.56 2640.42,-1689.11"/>
<polygon fill="#757575" stroke="#757575" points="2643.52,-1690.75 2645.67,-1680.37 2637.52,-1687.14 2643.52,-1690.75"/>
</g>
<!-- maths/geometry/line.ts&#45;&gt;maths/algebra/equation.ts -->
<g id="edge93" class="edge">
<title>maths/geometry/line.ts&#45;&gt;maths/algebra/equation.ts</title>
<path fill="none" stroke="#757575" d="M1182.52,-1582.63C1225.92,-1543.41 1365.85,-1416.96 1418.87,-1369.04"/>
<polygon fill="#757575" stroke="#757575" points="1421.54,-1371.35 1426.61,-1362.05 1416.84,-1366.15 1421.54,-1371.35"/>
</g>
<!-- maths/geometry/line.ts&#45;&gt;maths/algebra/polynom.ts -->
<g id="edge94" class="edge">
<title>maths/geometry/line.ts&#45;&gt;maths/algebra/polynom.ts</title>
<path fill="none" stroke="#757575" d="M1173.98,-1582.56C1196.49,-1523.25 1296.64,-1260.85 1311,-1249.4 1402.24,-1176.66 1460.31,-1246.2 1570,-1206.4 1619.09,-1188.58 1670.24,-1154.91 1699.2,-1134.19"/>
<polygon fill="#757575" stroke="#757575" points="1701.41,-1136.91 1707.45,-1128.2 1697.3,-1131.24 1701.41,-1136.91"/>
</g>
<!-- maths/geometry/line.ts&#45;&gt;maths/coefficients/fraction.ts -->
<g id="edge95" class="edge">
<title>maths/geometry/line.ts&#45;&gt;maths/coefficients/fraction.ts</title>
<path fill="none" stroke="#757575" d="M1248.09,-1596.93C1477.61,-1603.73 2135.98,-1618.76 2219,-1570.4 2305.91,-1519.76 2347.23,-1395.68 2360.76,-1345.74"/>
<polygon fill="#757575" stroke="#757575" points="2364.17,-1346.56 2363.3,-1336 2357.39,-1344.79 2364.17,-1346.56"/>
</g>
<!-- maths/geometry/line.ts&#45;&gt;maths/geometry/point.ts -->
<g id="edge96" class="edge">
<title>maths/geometry/line.ts&#45;&gt;maths/geometry/point.ts</title>
<path fill="none" stroke="#757575" d="M1129.42,-1605.93C1108.32,-1610.39 1082.32,-1616.88 1062,-1629.4 1041.06,-1642.29 1046.88,-1658.42 1026,-1671.4 1022.96,-1673.28 1019.78,-1675.04 1016.52,-1676.66"/>
<polygon fill="#757575" stroke="#757575" points="1014.78,-1673.6 1007.09,-1680.89 1017.65,-1679.99 1014.78,-1673.6"/>
</g>
<!-- maths/geometry/line.ts&#45;&gt;maths/geometry/vector.ts -->
<g id="edge97" class="edge">
<title>maths/geometry/line.ts&#45;&gt;maths/geometry/vector.ts</title>
<path fill="none" stroke="#757575" d="M1190.69,-1606.01C1238.4,-1632.16 1354.39,-1695.74 1409.49,-1725.94"/>
<polygon fill="#757575" stroke="#757575" points="1407.96,-1729.1 1418.41,-1730.84 1411.33,-1722.96 1407.96,-1729.1"/>
</g>
<!-- maths/geometry/line.ts&#45;&gt;maths/numeric.ts -->
<g id="edge98" class="edge">
<title>maths/geometry/line.ts&#45;&gt;maths/numeric.ts</title>
<path fill="none" stroke="#757575" d="M1236.98,-1605.92C1260.35,-1609.52 1286.77,-1613.13 1311,-1615.4 1794.85,-1660.72 2380.42,-1667.37 2581.06,-1668.28"/>
<polygon fill="#757575" stroke="#757575" points="2581.16,-1671.78 2591.17,-1668.32 2581.19,-1664.78 2581.16,-1671.78"/>
</g>
<!-- maths/geometry/point.ts&#45;&gt;maths/coefficients/fraction.ts -->
<g id="edge99" class="edge">
<title>maths/geometry/point.ts&#45;&gt;maths/coefficients/fraction.ts</title>
<path fill="none" stroke="#757575" d="M1007.07,-1687.46C1276.95,-1683.78 2117.6,-1667.11 2219,-1601.4 2312.61,-1540.73 2350.54,-1399.74 2361.95,-1345.86"/>
<polygon fill="#757575" stroke="#757575" points="2365.39,-1346.51 2363.95,-1336.02 2358.53,-1345.13 2365.39,-1346.51"/>
</g>
<!-- maths/geometry/point.ts&#45;&gt;maths/geometry/line.ts -->
<g id="edge100" class="edge">
<title>maths/geometry/point.ts&#45;&gt;maths/geometry/line.ts</title>
<path fill="none" stroke="#757575" d="M959.62,-1676.88C980.23,-1672.34 1005.98,-1665.84 1026,-1653.4 1046.88,-1640.42 1041.06,-1624.29 1062,-1611.4 1067.43,-1608.05 1073.26,-1605.14 1079.3,-1602.62"/>
<polygon fill="#757575" stroke="#757575" points="1080.81,-1605.79 1088.93,-1598.98 1078.34,-1599.24 1080.81,-1605.79"/>
</g>
<!-- maths/geometry/point.ts&#45;&gt;maths/geometry/vector.ts -->
<g id="edge101" class="edge">
<title>maths/geometry/point.ts&#45;&gt;maths/geometry/vector.ts</title>
<path fill="none" stroke="#757575" d="M1007.11,-1691.98C1105.75,-1700.08 1268.82,-1717.23 1364,-1729.55"/>
<polygon fill="#757575" stroke="#757575" points="1363.76,-1733.04 1374.13,-1730.87 1364.67,-1726.1 1363.76,-1733.04"/>
</g>
<!-- maths/geometry/triangle.ts&#45;&gt;maths/algebra/equation.ts -->
<g id="edge102" class="edge">
<title>maths/geometry/triangle.ts&#45;&gt;maths/algebra/equation.ts</title>
<path fill="none" stroke="#757575" d="M721.47,-1596.85C747,-1586.43 785.84,-1570.87 820,-1558.4 1032.45,-1480.8 1289.71,-1397.92 1393.14,-1365.04"/>
<polygon fill="#757575" stroke="#757575" points="1394.49,-1368.29 1402.96,-1361.92 1392.37,-1361.61 1394.49,-1368.29"/>
</g>
<!-- maths/geometry/triangle.ts&#45;&gt;maths/coefficients/fraction.ts -->
<g id="edge103" class="edge">
<title>maths/geometry/triangle.ts&#45;&gt;maths/coefficients/fraction.ts</title>
<path fill="none" stroke="#757575" d="M784.26,-1598.47C858.78,-1590.63 967.12,-1579.96 1062,-1573.4 1319.44,-1555.6 1990.02,-1593.39 2219,-1474.4 2279.33,-1443.04 2329.76,-1377.78 2352.71,-1344.64"/>
<polygon fill="#757575" stroke="#757575" points="2355.72,-1346.44 2358.44,-1336.2 2349.93,-1342.51 2355.72,-1346.44"/>
</g>
<!-- maths/geometry/triangle.ts&#45;&gt;maths/geometry/line.ts -->
<g id="edge104" class="edge">
<title>maths/geometry/triangle.ts&#45;&gt;maths/geometry/line.ts</title>
<path fill="none" stroke="#757575" d="M784.05,-1605.72C868.75,-1603.22 994.48,-1599.51 1078.63,-1597.02"/>
<polygon fill="#757575" stroke="#757575" points="1078.78,-1600.52 1088.68,-1596.72 1078.58,-1593.52 1078.78,-1600.52"/>
</g>
<!-- maths/geometry/triangle.ts&#45;&gt;maths/geometry/point.ts -->
<g id="edge105" class="edge">
<title>maths/geometry/triangle.ts&#45;&gt;maths/geometry/point.ts</title>
<path fill="none" stroke="#757575" d="M726.73,-1620.03C767.12,-1634.17 835.34,-1658.06 879.52,-1673.52"/>
<polygon fill="#757575" stroke="#757575" points="878.51,-1676.88 889.1,-1676.88 880.82,-1670.27 878.51,-1676.88"/>
</g>
<!-- maths/geometry/triangle.ts&#45;&gt;maths/geometry/vector.ts -->
<g id="edge106" class="edge">
<title>maths/geometry/triangle.ts&#45;&gt;maths/geometry/vector.ts</title>
<path fill="none" stroke="#757575" d="M703.96,-1620.15C724.03,-1641.83 770.37,-1687.76 820,-1708.4 998,-1782.42 1229.89,-1769.56 1353.33,-1755.12"/>
<polygon fill="#757575" stroke="#757575" points="1353.97,-1758.57 1363.48,-1753.9 1353.13,-1751.62 1353.97,-1758.57"/>
</g>
<!-- maths/geometry/vector.ts&#45;&gt;maths/coefficients/fraction.ts -->
<g id="edge107" class="edge">
<title>maths/geometry/vector.ts&#45;&gt;maths/coefficients/fraction.ts</title>
<path fill="none" stroke="#757575" d="M1528.62,-1741C1719.95,-1737.23 2164.23,-1724.23 2219,-1684.4 2334.11,-1600.68 2359.32,-1410.67 2364.64,-1346.23"/>
<polygon fill="#757575" stroke="#757575" points="2368.14,-1346.27 2365.39,-1336.04 2361.16,-1345.75 2368.14,-1346.27"/>
</g>
<!-- maths/geometry/vector.ts&#45;&gt;maths/geometry/point.ts -->
<g id="edge108" class="edge">
<title>maths/geometry/vector.ts&#45;&gt;maths/geometry/point.ts</title>
<path fill="none" stroke="#757575" d="M1352.4,-1738.48C1253.32,-1730.24 1093.16,-1713.37 999.28,-1701.22"/>
<polygon fill="#757575" stroke="#757575" points="999.66,-1697.74 989.29,-1699.91 998.75,-1704.68 999.66,-1697.74"/>
</g>
<!-- maths/geometry/vector.ts&#45;&gt;maths/numeric.ts -->
<g id="edge109" class="edge">
<title>maths/geometry/vector.ts&#45;&gt;maths/numeric.ts</title>
<path fill="none" stroke="#757575" d="M1458.26,-1754.12C1486.94,-1773.44 1547.97,-1811.3 1606,-1826.4 1769.83,-1869 2372.85,-1879.36 2479,-1836.4 2553.88,-1806.08 2614.33,-1726.24 2639.65,-1688.59"/>
<polygon fill="#757575" stroke="#757575" points="2642.74,-1690.26 2645.32,-1679.98 2636.89,-1686.41 2642.74,-1690.26"/>
</g>
<!-- maths/randomization/random.ts&#45;&gt;maths/algebra/monom.ts -->
<g id="edge110" class="edge">
<title>maths/randomization/random.ts&#45;&gt;maths/algebra/monom.ts</title>
<path fill="none" stroke="#757575" d="M1182.41,-549.04C1206.01,-569.62 1258.55,-612.15 1311,-632.4 1419.53,-674.3 1455.15,-651.84 1570,-670.4 1691.19,-689.97 1722.03,-692.38 1842,-718.4 1895.06,-729.9 1955.12,-745.72 1996.54,-757.08"/>
<polygon fill="#757575" stroke="#757575" points="1995.83,-760.51 2006.4,-759.79 1997.68,-753.76 1995.83,-760.51"/>
</g>
<!-- maths/randomization/random.ts&#45;&gt;maths/algebra/polynom.ts -->
<g id="edge111" class="edge">
<title>maths/randomization/random.ts&#45;&gt;maths/algebra/polynom.ts</title>
<path fill="none" stroke="#757575" d="M1181.91,-549.23C1206.42,-572.57 1262.86,-626.12 1311,-670.4 1424.97,-775.2 1466.68,-788.07 1570,-903.4 1628.54,-968.73 1685.63,-1056.37 1710.29,-1095.74"/>
<polygon fill="#757575" stroke="#757575" points="1707.59,-1098.02 1715.84,-1104.66 1713.53,-1094.32 1707.59,-1098.02"/>
</g>
<!-- maths/randomization/random.ts&#45;&gt;maths/coefficients/fraction.ts -->
<g id="edge112" class="edge">
<title>maths/randomization/random.ts&#45;&gt;maths/coefficients/fraction.ts</title>
<path fill="none" stroke="#757575" d="M1191.35,-549.09C1218.58,-563.11 1266.9,-586.25 1311,-598.4 1705.48,-707.05 1922.64,-468.28 2219,-750.4 2302.23,-829.63 2352.15,-1207.75 2363.51,-1302.72"/>
<polygon fill="#757575" stroke="#757575" points="2360.06,-1303.33 2364.7,-1312.86 2367.01,-1302.52 2360.06,-1303.33"/>
</g>
<!-- maths/randomization/rndFraction.ts -->
<g id="node34" class="node">
<title>maths/randomization/rndFraction.ts</title>
<path fill="none" stroke="#ff6c60" d="M1834.33,-436.9C1834.33,-436.9 1613.67,-436.9 1613.67,-436.9 1609.83,-436.9 1606,-433.06 1606,-429.23 1606,-429.23 1606,-421.56 1606,-421.56 1606,-417.73 1609.83,-413.9 1613.67,-413.9 1613.67,-413.9 1834.33,-413.9 1834.33,-413.9 1838.17,-413.9 1842,-417.73 1842,-421.56 1842,-421.56 1842,-429.23 1842,-429.23 1842,-433.06 1838.17,-436.9 1834.33,-436.9"/>
<text text-anchor="middle" x="1724" y="-421.7" font-family="Arial" font-size="14.00" fill="#ff6c60">maths/randomization/rndFraction.ts</text>
</g>
<!-- maths/randomization/random.ts&#45;&gt;maths/randomization/rndFraction.ts -->
<g id="edge113" class="edge">
<title>maths/randomization/random.ts&#45;&gt;maths/randomization/rndFraction.ts</title>
<path fill="none" stroke="#757575" d="M1189.55,-525.77C1216.88,-515.38 1267.42,-501.95 1311,-492.4 1407,-471.35 1516.43,-451.35 1598.37,-438.48"/>
<polygon fill="#757575" stroke="#757575" points="1599.14,-441.9 1608.48,-436.9 1598.06,-434.98 1599.14,-441.9"/>
</g>
<!-- maths/randomization/rndHelpers.ts -->
<g id="node35" class="node">
<title>maths/randomization/rndHelpers.ts</title>
<path fill="none" stroke="#cfffac" d="M1550.33,-589.9C1550.33,-589.9 1330.67,-589.9 1330.67,-589.9 1326.83,-589.9 1323,-586.06 1323,-582.23 1323,-582.23 1323,-574.56 1323,-574.56 1323,-570.73 1326.83,-566.9 1330.67,-566.9 1330.67,-566.9 1550.33,-566.9 1550.33,-566.9 1554.17,-566.9 1558,-570.73 1558,-574.56 1558,-574.56 1558,-582.23 1558,-582.23 1558,-586.06 1554.17,-589.9 1550.33,-589.9"/>
<text text-anchor="middle" x="1440.5" y="-574.7" font-family="Arial" font-size="14.00" fill="#cfffac">maths/randomization/rndHelpers.ts</text>
</g>
<!-- maths/randomization/random.ts&#45;&gt;maths/randomization/rndHelpers.ts -->
<g id="edge114" class="edge">
<title>maths/randomization/random.ts&#45;&gt;maths/randomization/rndHelpers.ts</title>
<path fill="none" stroke="#757575" d="M1245.43,-548.93C1279.07,-554.03 1318.82,-560.07 1353.55,-565.34"/>
<polygon fill="#757575" stroke="#757575" points="1353.26,-568.84 1363.67,-566.88 1354.31,-561.92 1353.26,-568.84"/>
</g>
<!-- maths/randomization/rndMonom.ts -->
<g id="node36" class="node">
<title>maths/randomization/rndMonom.ts</title>
<path fill="none" stroke="#ff6c60" d="M1832.83,-516.9C1832.83,-516.9 1615.17,-516.9 1615.17,-516.9 1611.33,-516.9 1607.5,-513.06 1607.5,-509.23 1607.5,-509.23 1607.5,-501.56 1607.5,-501.56 1607.5,-497.73 1611.33,-493.9 1615.17,-493.9 1615.17,-493.9 1832.83,-493.9 1832.83,-493.9 1836.67,-493.9 1840.5,-497.73 1840.5,-501.56 1840.5,-501.56 1840.5,-509.23 1840.5,-509.23 1840.5,-513.06 1836.67,-516.9 1832.83,-516.9"/>
<text text-anchor="middle" x="1724" y="-501.7" font-family="Arial" font-size="14.00" fill="#ff6c60">maths/randomization/rndMonom.ts</text>
</g>
<!-- maths/randomization/random.ts&#45;&gt;maths/randomization/rndMonom.ts -->
<g id="edge115" class="edge">
<title>maths/randomization/random.ts&#45;&gt;maths/randomization/rndMonom.ts</title>
<path fill="none" stroke="#757575" d="M1195.73,-525.88C1224.05,-518.51 1270.55,-510.92 1311,-507.4 1406.7,-499.05 1515.34,-496.43 1597.02,-497.13"/>
<polygon fill="#757575" stroke="#757575" points="1597.32,-500.63 1607.35,-497.23 1597.39,-493.63 1597.32,-500.63"/>
</g>
<!-- maths/randomization/rndPolynom.ts -->
<g id="node37" class="node">
<title>maths/randomization/rndPolynom.ts</title>
<path fill="none" stroke="#ff6c60" d="M1553.33,-548.9C1553.33,-548.9 1327.67,-548.9 1327.67,-548.9 1323.83,-548.9 1320,-545.06 1320,-541.23 1320,-541.23 1320,-533.56 1320,-533.56 1320,-529.73 1323.83,-525.9 1327.67,-525.9 1327.67,-525.9 1553.33,-525.9 1553.33,-525.9 1557.17,-525.9 1561,-529.73 1561,-533.56 1561,-533.56 1561,-541.23 1561,-541.23 1561,-545.06 1557.17,-548.9 1553.33,-548.9"/>
<text text-anchor="middle" x="1440.5" y="-533.7" font-family="Arial" font-size="14.00" fill="#ff6c60">maths/randomization/rndPolynom.ts</text>
</g>
<!-- maths/randomization/random.ts&#45;&gt;maths/randomization/rndPolynom.ts -->
<g id="edge116" class="edge">
<title>maths/randomization/random.ts&#45;&gt;maths/randomization/rndPolynom.ts</title>
<path fill="none" stroke="#757575" d="M1275.05,-530.79C1286.37,-530.68 1297.99,-530.63 1309.56,-530.65"/>
<polygon fill="#757575" stroke="#757575" points="1309.69,-534.15 1319.7,-530.68 1309.71,-527.15 1309.69,-534.15"/>
</g>
<!-- maths/randomization/rndTypes.ts -->
<g id="node38" class="node">
<title>maths/randomization/rndTypes.ts</title>
<path fill="none" stroke="#cfffac" d="M2153.33,-476.9C2153.33,-476.9 1943.67,-476.9 1943.67,-476.9 1939.83,-476.9 1936,-473.06 1936,-469.23 1936,-469.23 1936,-461.56 1936,-461.56 1936,-457.73 1939.83,-453.9 1943.67,-453.9 1943.67,-453.9 2153.33,-453.9 2153.33,-453.9 2157.17,-453.9 2161,-457.73 2161,-461.56 2161,-461.56 2161,-469.23 2161,-469.23 2161,-473.06 2157.17,-476.9 2153.33,-476.9"/>
<text text-anchor="middle" x="2048.5" y="-461.7" font-family="Arial" font-size="14.00" fill="#cfffac">maths/randomization/rndTypes.ts</text>
</g>
<!-- maths/randomization/random.ts&#45;&gt;maths/randomization/rndTypes.ts -->
<g id="edge117" class="edge">
<title>maths/randomization/random.ts&#45;&gt;maths/randomization/rndTypes.ts</title>
<path fill="none" stroke="#757575" d="M1183.71,-525.59C1208.06,-506.05 1260.11,-467.25 1311,-448.4 1533.06,-366.14 1607.65,-370.35 1842,-404.4 1901.71,-413.07 1968.22,-435.22 2008.96,-450.3"/>
<polygon fill="#757575" stroke="#757575" points="2007.9,-453.65 2018.49,-453.88 2010.36,-447.09 2007.9,-453.65"/>
</g>
<!-- maths/algebra/study/rationalStudy.ts&#45;&gt;maths/algebra/polynom.ts -->
<g id="edge49" class="edge">
<title>maths/algebra/study/rationalStudy.ts&#45;&gt;maths/algebra/polynom.ts</title>
<path fill="none" stroke="#757575" d="M457.47,-1330.88C510.72,-1284.82 719.31,-1116.4 922,-1116.4 922,-1116.4 922,-1116.4 1169.5,-1116.4 1328.61,-1116.4 1513.45,-1116.4 1624.18,-1116.4"/>
<polygon fill="#757575" stroke="#757575" points="1624.33,-1119.9 1634.33,-1116.4 1624.33,-1112.9 1624.33,-1119.9"/>
</g>
<!-- maths/algebra/study/rationalStudy.ts&#45;&gt;maths/algebra/rational.ts -->
<g id="edge50" class="edge">
<title>maths/algebra/study/rationalStudy.ts&#45;&gt;maths/algebra/rational.ts</title>
<path fill="none" stroke="#757575" d="M338.1,-1330.85C332.61,-1329.16 327.21,-1327.34 322,-1325.4 280.49,-1309.9 235.99,-1282.76 212.1,-1264.32"/>
<polygon fill="#757575" stroke="#757575" points="214.24,-1261.55 204.27,-1257.96 209.82,-1266.99 214.24,-1261.55"/>
</g>
<!-- maths/algebra/study/rationalStudy.ts&#45;&gt;maths/coefficients/fraction.ts -->
<g id="edge52" class="edge">
<title>maths/algebra/study/rationalStudy.ts&#45;&gt;maths/coefficients/fraction.ts</title>
<path fill="none" stroke="#757575" d="M565.1,-1350.86C852.35,-1369.24 1599.32,-1406.64 2219,-1347.4 2243.3,-1345.07 2269.69,-1341.33 2293.32,-1337.53"/>
<polygon fill="#757575" stroke="#757575" points="2293.96,-1340.98 2303.26,-1335.91 2292.83,-1334.07 2293.96,-1340.98"/>
</g>
<!-- maths/algebra/study.ts -->
<g id="node21" class="node">
<title>maths/algebra/study.ts</title>
<path fill="none" stroke="#ff6c60" d="M763.83,-1315.9C763.83,-1315.9 621.17,-1315.9 621.17,-1315.9 617.33,-1315.9 613.5,-1312.06 613.5,-1308.23 613.5,-1308.23 613.5,-1300.56 613.5,-1300.56 613.5,-1296.73 617.33,-1292.9 621.17,-1292.9 621.17,-1292.9 763.83,-1292.9 763.83,-1292.9 767.67,-1292.9 771.5,-1296.73 771.5,-1300.56 771.5,-1300.56 771.5,-1308.23 771.5,-1308.23 771.5,-1312.06 767.67,-1315.9 763.83,-1315.9"/>
<text text-anchor="middle" x="692.5" y="-1300.7" font-family="Arial" font-size="14.00" fill="#ff6c60">maths/algebra/study.ts</text>
</g>
<!-- maths/algebra/study/rationalStudy.ts&#45;&gt;maths/algebra/study.ts -->
<g id="edge51" class="edge">
<title>maths/algebra/study/rationalStudy.ts&#45;&gt;maths/algebra/study.ts</title>
<path fill="none" stroke="#757575" d="M519.28,-1330.89C546.84,-1326.65 578.26,-1321.82 606.65,-1317.45"/>
<polygon fill="#757575" stroke="#757575" points="607.2,-1320.91 616.55,-1315.93 606.13,-1313.99 607.2,-1320.91"/>
</g>
<!-- maths/algebra/study.ts&#45;&gt;maths/algebra/equation.ts -->
<g id="edge43" class="edge">
<title>maths/algebra/study.ts&#45;&gt;maths/algebra/equation.ts</title>
<path fill="none" stroke="#757575" d="M771.57,-1309.21C908.27,-1317.64 1190.64,-1335.05 1340.71,-1344.3"/>
<polygon fill="#757575" stroke="#757575" points="1340.64,-1347.81 1350.84,-1344.93 1341.07,-1340.82 1340.64,-1347.81"/>
</g>
<!-- maths/algebra/study.ts&#45;&gt;maths/algebra/polynom.ts -->
<g id="edge44" class="edge">
<title>maths/algebra/study.ts&#45;&gt;maths/algebra/polynom.ts</title>
<path fill="none" stroke="#757575" d="M745.37,-1292.86C851.32,-1269.51 1100.38,-1215.71 1311,-1178.4 1419.14,-1159.24 1543.93,-1141 1627.58,-1129.32"/>
<polygon fill="#757575" stroke="#757575" points="1628.15,-1132.78 1637.57,-1127.93 1627.18,-1125.84 1628.15,-1132.78"/>
</g>
<!-- maths/algebra/study.ts&#45;&gt;maths/algebra/rational.ts -->
<g id="edge45" class="edge">
<title>maths/algebra/study.ts&#45;&gt;maths/algebra/rational.ts</title>
<path fill="none" stroke="#757575" d="M613.19,-1302.87C538.09,-1300.47 421.7,-1294.29 322,-1278.4 295.48,-1274.17 266.39,-1267.06 242.71,-1260.62"/>
<polygon fill="#757575" stroke="#757575" points="243.49,-1257.21 232.91,-1257.91 241.62,-1263.95 243.49,-1257.21"/>
</g>
<!-- maths/algebra/study.ts&#45;&gt;maths/coefficients/fraction.ts -->
<g id="edge46" class="edge">
<title>maths/algebra/study.ts&#45;&gt;maths/coefficients/fraction.ts</title>
<path fill="none" stroke="#757575" d="M730.95,-1315.99C826.45,-1344.92 1087.37,-1419.92 1311,-1447.4 1491.22,-1469.54 2158.73,-1474.96 2219,-1452.4 2276.98,-1430.69 2327.16,-1374.64 2351.08,-1344.42"/>
<polygon fill="#757575" stroke="#757575" points="2354.03,-1346.33 2357.38,-1336.28 2348.49,-1342.04 2354.03,-1346.33"/>
</g>
<!-- maths/algebra/study.ts&#45;&gt;maths/expressions/numexp.ts -->
<g id="edge47" class="edge">
<title>maths/algebra/study.ts&#45;&gt;maths/expressions/numexp.ts</title>
<path fill="none" stroke="#757575" d="M700.06,-1292.65C716.76,-1263.59 763.59,-1187.29 820,-1140.4 916.26,-1060.37 1054.47,-1003.18 1124.02,-977.51"/>
<polygon fill="#757575" stroke="#757575" points="1125.57,-980.67 1133.77,-973.96 1123.17,-974.1 1125.57,-980.67"/>
</g>
<!-- maths/algebra/study.ts&#45;&gt;maths/geometry/point.ts -->
<g id="edge48" class="edge">
<title>maths/algebra/study.ts&#45;&gt;maths/geometry/point.ts</title>
<path fill="none" stroke="#757575" d="M700.59,-1316.31C733.11,-1370.96 868.19,-1597.97 909.77,-1667.84"/>
<polygon fill="#757575" stroke="#757575" points="906.87,-1669.82 914.99,-1676.62 912.89,-1666.24 906.87,-1669.82"/>
</g>
<!-- maths/expressions/expression.ts -->
<g id="node22" class="node">
<title>maths/expressions/expression.ts</title>
<path fill="none" stroke="#ff6c60" d="M2471.33,-166.9C2471.33,-166.9 2262.67,-166.9 2262.67,-166.9 2258.83,-166.9 2255,-163.06 2255,-159.23 2255,-159.23 2255,-151.56 2255,-151.56 2255,-147.73 2258.83,-143.9 2262.67,-143.9 2262.67,-143.9 2471.33,-143.9 2471.33,-143.9 2475.17,-143.9 2479,-147.73 2479,-151.56 2479,-151.56 2479,-159.23 2479,-159.23 2479,-163.06 2475.17,-166.9 2471.33,-166.9"/>
<text text-anchor="middle" x="2367" y="-151.7" font-family="Arial" font-size="14.00" fill="#ff6c60">maths/expressions/expression.ts</text>
</g>
<!-- maths/expressions/expressionFactor.ts -->
<g id="node23" class="node">
<title>maths/expressions/expressionFactor.ts</title>
<path fill="none" stroke="#ff6c60" d="M3440.33,-166.9C3440.33,-166.9 3190.67,-166.9 3190.67,-166.9 3186.83,-166.9 3183,-163.06 3183,-159.23 3183,-159.23 3183,-151.56 3183,-151.56 3183,-147.73 3186.83,-143.9 3190.67,-143.9 3190.67,-143.9 3440.33,-143.9 3440.33,-143.9 3444.17,-143.9 3448,-147.73 3448,-151.56 3448,-151.56 3448,-159.23 3448,-159.23 3448,-163.06 3444.17,-166.9 3440.33,-166.9"/>
<text text-anchor="middle" x="3315.5" y="-151.7" font-family="Arial" font-size="14.00" fill="#ff6c60">maths/expressions/expressionFactor.ts</text>
</g>
<!-- maths/expressions/expression.ts&#45;&gt;maths/expressions/expressionFactor.ts -->
<g id="edge54" class="edge">
<title>maths/expressions/expression.ts&#45;&gt;maths/expressions/expressionFactor.ts</title>
<path fill="none" stroke="#757575" d="M2479.36,-150.86C2651.83,-148.06 2983.36,-147.92 3172.7,-150.41"/>
<polygon fill="#757575" stroke="#757575" points="3172.68,-153.91 3182.73,-150.55 3172.78,-146.91 3172.68,-153.91"/>
</g>
<!-- maths/expressions/expressionMember.ts -->
<g id="node24" class="node">
<title>maths/expressions/expressionMember.ts</title>
<path fill="none" stroke="#ff6c60" d="M2784.33,-291.9C2784.33,-291.9 2522.67,-291.9 2522.67,-291.9 2518.83,-291.9 2515,-288.06 2515,-284.23 2515,-284.23 2515,-276.56 2515,-276.56 2515,-272.73 2518.83,-268.9 2522.67,-268.9 2522.67,-268.9 2784.33,-268.9 2784.33,-268.9 2788.17,-268.9 2792,-272.73 2792,-276.56 2792,-276.56 2792,-284.23 2792,-284.23 2792,-288.06 2788.17,-291.9 2784.33,-291.9"/>
<text text-anchor="middle" x="2653.5" y="-276.7" font-family="Arial" font-size="14.00" fill="#ff6c60">maths/expressions/expressionMember.ts</text>
</g>
<!-- maths/expressions/expression.ts&#45;&gt;maths/expressions/expressionMember.ts -->
<g id="edge55" class="edge">
<title>maths/expressions/expression.ts&#45;&gt;maths/expressions/expressionMember.ts</title>
<path fill="none" stroke="#757575" d="M2381.1,-166.98C2405.57,-187.95 2460.64,-232.06 2515,-254.4 2526.91,-259.29 2539.78,-263.27 2552.7,-266.51"/>
<polygon fill="#757575" stroke="#757575" points="2552.04,-269.95 2562.58,-268.84 2553.65,-263.13 2552.04,-269.95"/>
</g>
<!-- maths/expressions/expressionFactor.ts&#45;&gt;maths/expressions/expression.ts -->
<g id="edge56" class="edge">
<title>maths/expressions/expressionFactor.ts&#45;&gt;maths/expressions/expression.ts</title>
<path fill="none" stroke="#757575" d="M3182.73,-160.24C2998.84,-162.83 2667.82,-162.78 2489.57,-160.09"/>
<polygon fill="#757575" stroke="#757575" points="2489.41,-156.59 2479.36,-159.93 2489.3,-163.59 2489.41,-156.59"/>
</g>
<!-- maths/expressions/expressionMember.ts&#45;&gt;maths/expressions/expressionFactor.ts -->
<g id="edge57" class="edge">
<title>maths/expressions/expressionMember.ts&#45;&gt;maths/expressions/expressionFactor.ts</title>
<path fill="none" stroke="#757575" d="M2755.2,-291.91C2856.61,-300.01 3016.32,-303.18 3147,-262.4 3206.01,-243.98 3264.46,-198.93 3294.24,-173.55"/>
<polygon fill="#757575" stroke="#757575" points="3296.59,-176.15 3301.85,-166.95 3292,-170.86 3296.59,-176.15"/>
</g>
<!-- maths/expressions/factors/ExpFactorVariable.ts -->
<g id="node25" class="node">
<title>maths/expressions/factors/ExpFactorVariable.ts</title>
<path fill="none" stroke="#ff6c60" d="M3139.33,-253.9C3139.33,-253.9 2835.67,-253.9 2835.67,-253.9 2831.83,-253.9 2828,-250.06 2828,-246.23 2828,-246.23 2828,-238.56 2828,-238.56 2828,-234.73 2831.83,-230.9 2835.67,-230.9 2835.67,-230.9 3139.33,-230.9 3139.33,-230.9 3143.17,-230.9 3147,-234.73 3147,-238.56 3147,-238.56 3147,-246.23 3147,-246.23 3147,-250.06 3143.17,-253.9 3139.33,-253.9"/>
<text text-anchor="middle" x="2987.5" y="-238.7" font-family="Arial" font-size="14.00" fill="#ff6c60">maths/expressions/factors/ExpFactorVariable.ts</text>
</g>
<!-- maths/expressions/expressionMember.ts&#45;&gt;maths/expressions/factors/ExpFactorVariable.ts -->
<g id="edge58" class="edge">
<title>maths/expressions/expressionMember.ts&#45;&gt;maths/expressions/factors/ExpFactorVariable.ts</title>
<path fill="none" stroke="#757575" d="M2755.01,-268.89C2793.03,-264.54 2836.5,-259.56 2875.44,-255.11"/>
<polygon fill="#757575" stroke="#757575" points="2876.22,-258.54 2885.76,-253.93 2875.42,-251.59 2876.22,-258.54"/>
</g>
<!-- maths/expressions/factors/ExpFactorVariable.ts&#45;&gt;maths/expressions/expression.ts -->
<g id="edge76" class="edge">
<title>maths/expressions/factors/ExpFactorVariable.ts&#45;&gt;maths/expressions/expression.ts</title>
<path fill="none" stroke="#757575" d="M2897.35,-230.84C2802.48,-218.42 2648.03,-197.83 2515,-178.4 2493.82,-175.3 2470.94,-171.8 2449.69,-168.48"/>
<polygon fill="#757575" stroke="#757575" points="2450.15,-165.01 2439.73,-166.92 2449.07,-171.92 2450.15,-165.01"/>
</g>
<!-- maths/expressions/factors/ExpFactorVariable.ts&#45;&gt;maths/expressions/expressionFactor.ts -->
<g id="edge77" class="edge">
<title>maths/expressions/factors/ExpFactorVariable.ts&#45;&gt;maths/expressions/expressionFactor.ts</title>
<path fill="none" stroke="#757575" d="M3077.14,-230.85C3100.08,-227.05 3124.61,-222.25 3147,-216.4 3193.33,-204.27 3244.84,-184.52 3278.35,-170.79"/>
<polygon fill="#757575" stroke="#757575" points="3279.82,-173.97 3287.72,-166.91 3277.15,-167.5 3279.82,-173.97"/>
</g>
<!-- maths/expressions/expressionParser.ts -->
<g id="node26" class="node">
<title>maths/expressions/expressionParser.ts</title>
<path fill="none" stroke="#c6c5fe" d="M2173.83,-280.9C2173.83,-280.9 1923.17,-280.9 1923.17,-280.9 1919.33,-280.9 1915.5,-277.06 1915.5,-273.23 1915.5,-273.23 1915.5,-265.56 1915.5,-265.56 1915.5,-261.73 1919.33,-257.9 1923.17,-257.9 1923.17,-257.9 2173.83,-257.9 2173.83,-257.9 2177.67,-257.9 2181.5,-261.73 2181.5,-265.56 2181.5,-265.56 2181.5,-273.23 2181.5,-273.23 2181.5,-277.06 2177.67,-280.9 2173.83,-280.9"/>
<text text-anchor="middle" x="2048.5" y="-265.7" font-family="Arial" font-size="14.00" fill="#c6c5fe">maths/expressions/expressionParser.ts</text>
</g>
<!-- maths/expressions/expressionParser.ts&#45;&gt;maths/shutingyard.ts -->
<g id="edge63" class="edge">
<title>maths/expressions/expressionParser.ts&#45;&gt;maths/shutingyard.ts</title>
<path fill="none" stroke="#757575" d="M2181.89,-274.55C2195.43,-279.35 2208.16,-286.08 2219,-295.4 2259.62,-330.3 2236.8,-360.03 2255,-410.4 2289.03,-504.59 2336.66,-614.24 2356.62,-659.36"/>
<polygon fill="#757575" stroke="#757575" points="2353.51,-660.97 2360.76,-668.69 2359.91,-658.13 2353.51,-660.97"/>
</g>
<!-- maths/expressions/expressionParser.ts&#45;&gt;maths/expressions/expression.ts -->
<g id="edge59" class="edge">
<title>maths/expressions/expressionParser.ts&#45;&gt;maths/expressions/expression.ts</title>
<path fill="none" stroke="#757575" d="M2181.78,-258.8C2194.54,-256.06 2207.13,-252.64 2219,-248.4 2267.75,-230.95 2317.13,-195.16 2344.44,-173.42"/>
<polygon fill="#757575" stroke="#757575" points="2346.93,-175.91 2352.5,-166.9 2342.52,-170.47 2346.93,-175.91"/>
</g>
<!-- maths/expressions/expressionParser.ts&#45;&gt;maths/expressions/expressionFactor.ts -->
<g id="edge60" class="edge">
<title>maths/expressions/expressionParser.ts&#45;&gt;maths/expressions/expressionFactor.ts</title>
<path fill="none" stroke="#757575" d="M2171.32,-280.93C2187.68,-284.53 2203.99,-289.24 2219,-295.4 2237.26,-302.88 2236.56,-314.36 2255,-321.4 2625.49,-462.75 2786.34,-506.23 3147,-341.4 3224.04,-306.18 3280.87,-216.75 3303.6,-176.09"/>
<polygon fill="#757575" stroke="#757575" points="3306.8,-177.54 3308.52,-167.08 3300.66,-174.18 3306.8,-177.54"/>
</g>
<!-- maths/expressions/expressionParser.ts&#45;&gt;maths/expressions/expressionMember.ts -->
<g id="edge61" class="edge">
<title>maths/expressions/expressionParser.ts&#45;&gt;maths/expressions/expressionMember.ts</title>
<path fill="none" stroke="#757575" d="M2181.83,-271.81C2277.27,-273.55 2406.15,-275.9 2504.92,-277.7"/>
<polygon fill="#757575" stroke="#757575" points="2504.92,-281.2 2514.99,-277.89 2505.05,-274.2 2504.92,-281.2"/>
</g>
<!-- maths/expressions/expressionParser.ts&#45;&gt;maths/expressions/factors/ExpFactorVariable.ts -->
<g id="edge62" class="edge">
<title>maths/expressions/expressionParser.ts&#45;&gt;maths/expressions/factors/ExpFactorVariable.ts</title>
<path fill="none" stroke="#757575" d="M2119.3,-280.91C2251.4,-300.8 2546.72,-336.19 2792,-300.4 2847.37,-292.31 2908.89,-271.94 2947.63,-257.63"/>
<polygon fill="#757575" stroke="#757575" points="2949.31,-260.74 2957.44,-253.96 2946.85,-254.19 2949.31,-260.74"/>
</g>
<!-- maths/expressions/factors/ExpFactor.ts -->
<g id="node27" class="node">
<title>maths/expressions/factors/ExpFactor.ts</title>
<path fill="none" stroke="#c6c5fe" d="M2174.33,-239.9C2174.33,-239.9 1922.67,-239.9 1922.67,-239.9 1918.83,-239.9 1915,-236.06 1915,-232.23 1915,-232.23 1915,-224.56 1915,-224.56 1915,-220.73 1918.83,-216.9 1922.67,-216.9 1922.67,-216.9 2174.33,-216.9 2174.33,-216.9 2178.17,-216.9 2182,-220.73 2182,-224.56 2182,-224.56 2182,-232.23 2182,-232.23 2182,-236.06 2178.17,-239.9 2174.33,-239.9"/>
<text text-anchor="middle" x="2048.5" y="-224.7" font-family="Arial" font-size="14.00" fill="#c6c5fe">maths/expressions/factors/ExpFactor.ts</text>
</g>
<!-- maths/expressions/factors/ExpFactor.ts&#45;&gt;maths/expressions/expression.ts -->
<g id="edge64" class="edge">
<title>maths/expressions/factors/ExpFactor.ts&#45;&gt;maths/expressions/expression.ts</title>
<path fill="none" stroke="#757575" d="M2169.08,-216.88C2185.94,-214.3 2202.98,-211.17 2219,-207.4 2257.58,-198.29 2300.13,-182.59 2329.48,-170.81"/>
<polygon fill="#757575" stroke="#757575" points="2330.95,-173.99 2338.9,-166.99 2328.32,-167.51 2330.95,-173.99"/>
</g>
<!-- maths/expressions/factors/ExpFactor.ts&#45;&gt;maths/expressions/expressionFactor.ts -->
<g id="edge65" class="edge">
<title>maths/expressions/factors/ExpFactor.ts&#45;&gt;maths/expressions/expressionFactor.ts</title>
<path fill="none" stroke="#757575" d="M2154.96,-239.9C2176.19,-242.48 2198.33,-245.36 2219,-248.4 2627.58,-308.34 2759.77,-437.85 3147,-294.4 3213.36,-269.81 3272.26,-206.82 3299.11,-174.76"/>
<polygon fill="#757575" stroke="#757575" points="3301.88,-176.9 3305.52,-166.96 3296.47,-172.46 3301.88,-176.9"/>
</g>
<!-- maths/expressions/factors/ExpFactorConstant.ts -->
<g id="node28" class="node">
<title>maths/expressions/factors/ExpFactorConstant.ts</title>
<path fill="none" stroke="#c6c5fe" d="M2202.33,-198.9C2202.33,-198.9 1894.67,-198.9 1894.67,-198.9 1890.83,-198.9 1887,-195.06 1887,-191.23 1887,-191.23 1887,-183.56 1887,-183.56 1887,-179.73 1890.83,-175.9 1894.67,-175.9 1894.67,-175.9 2202.33,-175.9 2202.33,-175.9 2206.17,-175.9 2210,-179.73 2210,-183.56 2210,-183.56 2210,-191.23 2210,-191.23 2210,-195.06 2206.17,-198.9 2202.33,-198.9"/>
<text text-anchor="middle" x="2048.5" y="-183.7" font-family="Arial" font-size="14.00" fill="#c6c5fe">maths/expressions/factors/ExpFactorConstant.ts</text>
</g>
<!-- maths/expressions/factors/ExpFactorConstant.ts&#45;&gt;maths/expressions/expression.ts -->
<g id="edge66" class="edge">
<title>maths/expressions/factors/ExpFactorConstant.ts&#45;&gt;maths/expressions/expression.ts</title>
<path fill="none" stroke="#757575" d="M2163.32,-175.89C2189.72,-173.22 2217.91,-170.37 2244.62,-167.67"/>
<polygon fill="#757575" stroke="#757575" points="2245.19,-171.13 2254.78,-166.64 2244.48,-164.16 2245.19,-171.13"/>
</g>
<!-- maths/expressions/factors/ExpFactorConstant.ts&#45;&gt;maths/expressions/expressionFactor.ts -->
<g id="edge67" class="edge">
<title>maths/expressions/factors/ExpFactorConstant.ts&#45;&gt;maths/expressions/expressionFactor.ts</title>
<path fill="none" stroke="#757575" d="M2210.16,-192.51C2424.23,-197.86 2814.66,-202.48 3147,-178.4 3175.94,-176.3 3207.51,-172.39 3235.36,-168.38"/>
<polygon fill="#757575" stroke="#757575" points="3236.05,-171.82 3245.44,-166.91 3235.04,-164.89 3236.05,-171.82"/>
</g>
<!-- maths/expressions/factors/ExpFactorExponential.ts -->
<g id="node29" class="node">
<title>maths/expressions/factors/ExpFactorExponential.ts</title>
<path fill="none" stroke="#c6c5fe" d="M2211.33,-157.9C2211.33,-157.9 1885.67,-157.9 1885.67,-157.9 1881.83,-157.9 1878,-154.06 1878,-150.23 1878,-150.23 1878,-142.56 1878,-142.56 1878,-138.73 1881.83,-134.9 1885.67,-134.9 1885.67,-134.9 2211.33,-134.9 2211.33,-134.9 2215.17,-134.9 2219,-138.73 2219,-142.56 2219,-142.56 2219,-150.23 2219,-150.23 2219,-154.06 2215.17,-157.9 2211.33,-157.9"/>
<text text-anchor="middle" x="2048.5" y="-142.7" font-family="Arial" font-size="14.00" fill="#c6c5fe">maths/expressions/factors/ExpFactorExponential.ts</text>
</g>
<!-- maths/expressions/factors/ExpFactorExponential.ts&#45;&gt;maths/expressions/expression.ts -->
<g id="edge68" class="edge">
<title>maths/expressions/factors/ExpFactorExponential.ts&#45;&gt;maths/expressions/expression.ts</title>
<path fill="none" stroke="#757575" d="M2219.33,-151.22C2227.88,-151.47 2236.38,-151.71 2244.74,-151.95"/>
<polygon fill="#757575" stroke="#757575" points="2244.76,-155.45 2254.86,-152.23 2244.96,-148.45 2244.76,-155.45"/>
</g>
<!-- maths/expressions/factors/ExpFactorExponential.ts&#45;&gt;maths/expressions/expressionFactor.ts -->
<g id="edge69" class="edge">
<title>maths/expressions/factors/ExpFactorExponential.ts&#45;&gt;maths/expressions/expressionFactor.ts</title>
<path fill="none" stroke="#757575" d="M2219.08,-135.71C2231.23,-135.19 2243.3,-134.74 2255,-134.4 2583.46,-124.81 2969.33,-138.82 3172.62,-148.17"/>
<polygon fill="#757575" stroke="#757575" points="3172.6,-151.67 3182.75,-148.64 3172.93,-144.68 3172.6,-151.67"/>
</g>
<!-- maths/expressions/factors/ExpFactorNumber.ts -->
<g id="node30" class="node">
<title>maths/expressions/factors/ExpFactorNumber.ts</title>
<path fill="none" stroke="#c6c5fe" d="M2199.33,-116.9C2199.33,-116.9 1897.67,-116.9 1897.67,-116.9 1893.83,-116.9 1890,-113.06 1890,-109.23 1890,-109.23 1890,-101.56 1890,-101.56 1890,-97.73 1893.83,-93.9 1897.67,-93.9 1897.67,-93.9 2199.33,-93.9 2199.33,-93.9 2203.17,-93.9 2207,-97.73 2207,-101.56 2207,-101.56 2207,-109.23 2207,-109.23 2207,-113.06 2203.17,-116.9 2199.33,-116.9"/>
<text text-anchor="middle" x="2048.5" y="-101.7" font-family="Arial" font-size="14.00" fill="#c6c5fe">maths/expressions/factors/ExpFactorNumber.ts</text>
</g>
<!-- maths/expressions/factors/ExpFactorNumber.ts&#45;&gt;maths/expressions/expression.ts -->
<g id="edge70" class="edge">
<title>maths/expressions/factors/ExpFactorNumber.ts&#45;&gt;maths/expressions/expression.ts</title>
<path fill="none" stroke="#757575" d="M2158.65,-116.91C2178.76,-119.42 2199.54,-122.27 2219,-125.4 2247.39,-129.96 2278.63,-136.17 2304.99,-141.75"/>
<polygon fill="#757575" stroke="#757575" points="2304.32,-145.19 2314.83,-143.85 2305.78,-138.34 2304.32,-145.19"/>
</g>
<!-- maths/expressions/factors/ExpFactorNumber.ts&#45;&gt;maths/expressions/expressionFactor.ts -->
<g id="edge71" class="edge">
<title>maths/expressions/factors/ExpFactorNumber.ts&#45;&gt;maths/expressions/expressionFactor.ts</title>
<path fill="none" stroke="#757575" d="M2207.45,-103.75C2420.96,-102.78 2813.35,-105.47 3147,-132.4 3175.27,-134.68 3206.07,-138.51 3233.45,-142.41"/>
<polygon fill="#757575" stroke="#757575" points="3232.98,-145.87 3243.37,-143.84 3233.98,-138.95 3232.98,-145.87"/>
</g>
<!-- maths/expressions/factors/ExpFactorPower.ts -->
<g id="node31" class="node">
<title>maths/expressions/factors/ExpFactorPower.ts</title>
<path fill="none" stroke="#c6c5fe" d="M2194.83,-74.9C2194.83,-74.9 1902.17,-74.9 1902.17,-74.9 1898.33,-74.9 1894.5,-71.06 1894.5,-67.23 1894.5,-67.23 1894.5,-59.56 1894.5,-59.56 1894.5,-55.73 1898.33,-51.9 1902.17,-51.9 1902.17,-51.9 2194.83,-51.9 2194.83,-51.9 2198.67,-51.9 2202.5,-55.73 2202.5,-59.56 2202.5,-59.56 2202.5,-67.23 2202.5,-67.23 2202.5,-71.06 2198.67,-74.9 2194.83,-74.9"/>
<text text-anchor="middle" x="2048.5" y="-59.7" font-family="Arial" font-size="14.00" fill="#c6c5fe">maths/expressions/factors/ExpFactorPower.ts</text>
</g>
<!-- maths/expressions/factors/ExpFactorPower.ts&#45;&gt;maths/expressions/expression.ts -->
<g id="edge72" class="edge">
<title>maths/expressions/factors/ExpFactorPower.ts&#45;&gt;maths/expressions/expression.ts</title>
<path fill="none" stroke="#757575" d="M2178.59,-74.9C2192.36,-77.46 2206.06,-80.58 2219,-84.4 2262.91,-97.34 2309.93,-122.21 2338.65,-138.81"/>
<polygon fill="#757575" stroke="#757575" points="2336.91,-141.85 2347.31,-143.88 2340.45,-135.81 2336.91,-141.85"/>
</g>
<!-- maths/expressions/factors/ExpFactorPower.ts&#45;&gt;maths/expressions/expressionFactor.ts -->
<g id="edge73" class="edge">
<title>maths/expressions/factors/ExpFactorPower.ts&#45;&gt;maths/expressions/expressionFactor.ts</title>
<path fill="none" stroke="#757575" d="M2202.77,-59.4C2415.87,-56.25 2813.13,-59.04 3147,-110.4 3189.61,-116.95 3236.96,-130.25 3270.41,-140.7"/>
<polygon fill="#757575" stroke="#757575" points="3269.74,-144.16 3280.33,-143.84 3271.85,-137.48 3269.74,-144.16"/>
</g>
<!-- maths/expressions/factors/ExpFactorSin.ts -->
<g id="node32" class="node">
<title>maths/expressions/factors/ExpFactorSin.ts</title>
<path fill="none" stroke="#c6c5fe" d="M2184.33,-31.9C2184.33,-31.9 1912.67,-31.9 1912.67,-31.9 1908.83,-31.9 1905,-28.06 1905,-24.23 1905,-24.23 1905,-16.56 1905,-16.56 1905,-12.73 1908.83,-8.9 1912.67,-8.9 1912.67,-8.9 2184.33,-8.9 2184.33,-8.9 2188.17,-8.9 2192,-12.73 2192,-16.56 2192,-16.56 2192,-24.23 2192,-24.23 2192,-28.06 2188.17,-31.9 2184.33,-31.9"/>
<text text-anchor="middle" x="2048.5" y="-16.7" font-family="Arial" font-size="14.00" fill="#c6c5fe">maths/expressions/factors/ExpFactorSin.ts</text>
</g>
<!-- maths/expressions/factors/ExpFactorSin.ts&#45;&gt;maths/expressions/expression.ts -->
<g id="edge74" class="edge">
<title>maths/expressions/factors/ExpFactorSin.ts&#45;&gt;maths/expressions/expression.ts</title>
<path fill="none" stroke="#757575" d="M2187.13,-31.94C2198.1,-34.76 2208.85,-38.2 2219,-42.4 2271.84,-64.25 2322.12,-110.18 2347.96,-136.25"/>
<polygon fill="#757575" stroke="#757575" points="2345.68,-138.93 2355.17,-143.66 2350.7,-134.05 2345.68,-138.93"/>
</g>
<!-- maths/expressions/factors/ExpFactorSin.ts&#45;&gt;maths/expressions/expressionFactor.ts -->
<g id="edge75" class="edge">
<title>maths/expressions/factors/ExpFactorSin.ts&#45;&gt;maths/expressions/expressionFactor.ts</title>
<path fill="none" stroke="#757575" d="M2190.41,-8.88C2401.97,4.36 2812.56,14.32 3147,-72.4 3200.47,-86.26 3256.88,-118.38 3288.68,-138.35"/>
<polygon fill="#757575" stroke="#757575" points="3287.04,-141.45 3297.36,-143.88 3290.81,-135.55 3287.04,-141.45"/>
</g>
<!-- maths/expressions/polynomexp.bkp.ts -->
<g id="node33" class="node">
<title>maths/expressions/polynomexp.bkp.ts</title>
<path fill="none" stroke="#c6c5fe" d="M1562.33,-1281.9C1562.33,-1281.9 1318.67,-1281.9 1318.67,-1281.9 1314.83,-1281.9 1311,-1278.06 1311,-1274.23 1311,-1274.23 1311,-1266.56 1311,-1266.56 1311,-1262.73 1314.83,-1258.9 1318.67,-1258.9 1318.67,-1258.9 1562.33,-1258.9 1562.33,-1258.9 1566.17,-1258.9 1570,-1262.73 1570,-1266.56 1570,-1266.56 1570,-1274.23 1570,-1274.23 1570,-1278.06 1566.17,-1281.9 1562.33,-1281.9"/>
<text text-anchor="middle" x="1440.5" y="-1266.7" font-family="Arial" font-size="14.00" fill="#c6c5fe">maths/expressions/polynomexp.bkp.ts</text>
</g>
<!-- maths/expressions/polynomexp.bkp.ts&#45;&gt;maths/algebra/polynom.ts -->
<g id="edge80" class="edge">
<title>maths/expressions/polynomexp.bkp.ts&#45;&gt;maths/algebra/polynom.ts</title>
<path fill="none" stroke="#757575" d="M1538.52,-1258.79C1549.61,-1255.17 1560.38,-1250.47 1570,-1244.4 1592.54,-1230.15 1586.74,-1214.83 1606,-1196.4 1632.6,-1170.94 1668.07,-1147.91 1692.96,-1133.17"/>
<polygon fill="#757575" stroke="#757575" points="1694.74,-1136.18 1701.62,-1128.12 1691.21,-1130.14 1694.74,-1136.18"/>
</g>
<!-- maths/expressions/polynomexp.bkp.ts&#45;&gt;maths/coefficients/fraction.ts -->
<g id="edge81" class="edge">
<title>maths/expressions/polynomexp.bkp.ts&#45;&gt;maths/coefficients/fraction.ts</title>
<path fill="none" stroke="#757575" d="M1494.65,-1258.86C1517.8,-1253.83 1545.25,-1247.84 1570,-1242.4 1586.01,-1238.87 1589.71,-1236.18 1606,-1234.4 1876.82,-1204.67 1956.77,-1160.5 2219,-1234.4 2268.38,-1248.31 2317.55,-1283.95 2344.64,-1305.98"/>
<polygon fill="#757575" stroke="#757575" points="2342.71,-1308.92 2352.64,-1312.61 2347.17,-1303.53 2342.71,-1308.92"/>
</g>
<!-- maths/randomization/rndFraction.ts&#45;&gt;maths/coefficients/fraction.ts -->
<g id="edge118" class="edge">
<title>maths/randomization/rndFraction.ts&#45;&gt;maths/coefficients/fraction.ts</title>
<path fill="none" stroke="#757575" d="M1758.84,-413.82C1847.3,-385.94 2087.65,-325.72 2219,-444.4 2261.63,-482.91 2245.97,-643.66 2255,-700.4 2292.67,-937.02 2346.57,-1222.59 2361.83,-1302.62"/>
<polygon fill="#757575" stroke="#757575" points="2358.41,-1303.36 2363.72,-1312.53 2365.28,-1302.05 2358.41,-1303.36"/>
</g>
<!-- maths/randomization/rndFraction.ts&#45;&gt;maths/randomization/random.ts -->
<g id="edge119" class="edge">
<title>maths/randomization/rndFraction.ts&#45;&gt;maths/randomization/random.ts</title>
<path fill="none" stroke="#757575" d="M1683.92,-436.93C1610.53,-452.77 1447.23,-480.53 1311,-510.4 1292.74,-514.4 1273.26,-519.08 1254.77,-523.51"/>
<polygon fill="#757575" stroke="#757575" points="1253.83,-520.13 1244.92,-525.86 1255.46,-526.94 1253.83,-520.13"/>
</g>
<!-- maths/randomization/rndFraction.ts&#45;&gt;maths/randomization/rndTypes.ts -->
<g id="edge121" class="edge">
<title>maths/randomization/rndFraction.ts&#45;&gt;maths/randomization/rndTypes.ts</title>
<path fill="none" stroke="#757575" d="M1817.85,-436.91C1857.56,-441.84 1904.06,-447.6 1944.8,-452.66"/>
<polygon fill="#757575" stroke="#757575" points="1944.39,-456.13 1954.75,-453.89 1945.26,-449.19 1944.39,-456.13"/>
</g>
<!-- maths/randomization/randomCore.ts -->
<g id="node39" class="node">
<title>maths/randomization/randomCore.ts</title>
<path fill="none" stroke="#cfffac" d="M2163.33,-517.9C2163.33,-517.9 1933.67,-517.9 1933.67,-517.9 1929.83,-517.9 1926,-514.06 1926,-510.23 1926,-510.23 1926,-502.56 1926,-502.56 1926,-498.73 1929.83,-494.9 1933.67,-494.9 1933.67,-494.9 2163.33,-494.9 2163.33,-494.9 2167.17,-494.9 2171,-498.73 2171,-502.56 2171,-502.56 2171,-510.23 2171,-510.23 2171,-514.06 2167.17,-517.9 2163.33,-517.9"/>
<text text-anchor="middle" x="2048.5" y="-502.7" font-family="Arial" font-size="14.00" fill="#cfffac">maths/randomization/randomCore.ts</text>
</g>
<!-- maths/randomization/rndFraction.ts&#45;&gt;maths/randomization/randomCore.ts -->
<g id="edge120" class="edge">
<title>maths/randomization/rndFraction.ts&#45;&gt;maths/randomization/randomCore.ts</title>
<path fill="none" stroke="#757575" d="M1749.02,-437C1778.64,-450.79 1830.85,-473.43 1878,-485.4 1890.25,-488.5 1903.13,-491.16 1916.07,-493.43"/>
<polygon fill="#757575" stroke="#757575" points="1915.54,-496.89 1925.98,-495.09 1916.69,-489.98 1915.54,-496.89"/>
</g>
<!-- maths/randomization/rndMonom.ts&#45;&gt;maths/algebra/monom.ts -->
<g id="edge122" class="edge">
<title>maths/randomization/rndMonom.ts&#45;&gt;maths/algebra/monom.ts</title>
<path fill="none" stroke="#757575" d="M1750.87,-516.98C1775.42,-528.56 1812.82,-547.73 1842,-569.4 1920.04,-627.34 1998,-713.69 2031.05,-751.95"/>
<polygon fill="#757575" stroke="#757575" points="2028.59,-754.46 2037.75,-759.77 2033.9,-749.9 2028.59,-754.46"/>
</g>
<!-- maths/randomization/rndMonom.ts&#45;&gt;maths/randomization/random.ts -->
<g id="edge123" class="edge">
<title>maths/randomization/rndMonom.ts&#45;&gt;maths/randomization/random.ts</title>
<path fill="none" stroke="#757575" d="M1607.35,-512.29C1524.66,-514.22 1410.8,-516.69 1311,-525.4 1302.64,-526.12 1294.03,-527.03 1285.37,-528.02"/>
<polygon fill="#757575" stroke="#757575" points="1284.71,-524.58 1275.19,-529.23 1285.53,-531.53 1284.71,-524.58"/>
</g>
<!-- maths/randomization/rndMonom.ts&#45;&gt;maths/randomization/rndTypes.ts -->
<g id="edge125" class="edge">
<title>maths/randomization/rndMonom.ts&#45;&gt;maths/randomization/rndTypes.ts</title>
<path fill="none" stroke="#757575" d="M1811.55,-493.89C1833.24,-491.06 1856.47,-488.07 1878,-485.4 1897.37,-482.99 1917.99,-480.49 1937.94,-478.12"/>
<polygon fill="#757575" stroke="#757575" points="1938.47,-481.58 1947.99,-476.93 1937.65,-474.63 1938.47,-481.58"/>
</g>
<!-- maths/randomization/rndMonom.ts&#45;&gt;maths/randomization/randomCore.ts -->
<g id="edge124" class="edge">
<title>maths/randomization/rndMonom.ts&#45;&gt;maths/randomization/randomCore.ts</title>
<path fill="none" stroke="#757575" d="M1840.52,-505.75C1864.9,-505.83 1890.81,-505.91 1915.74,-505.99"/>
<polygon fill="#757575" stroke="#757575" points="1915.97,-509.49 1925.98,-506.02 1915.99,-502.49 1915.97,-509.49"/>
</g>
<!-- maths/randomization/rndPolynom.ts&#45;&gt;maths/algebra/monom.ts -->
<g id="edge126" class="edge">
<title>maths/randomization/rndPolynom.ts&#45;&gt;maths/algebra/monom.ts</title>
<path fill="none" stroke="#757575" d="M1527.92,-548.92C1542.06,-551.36 1556.49,-554.18 1570,-557.4 1693.61,-586.81 1726.59,-592.26 1842,-645.4 1911.15,-677.23 1985.8,-727.45 2023.21,-753.85"/>
<polygon fill="#757575" stroke="#757575" points="2021.28,-756.77 2031.46,-759.71 2025.34,-751.07 2021.28,-756.77"/>
</g>
<!-- maths/randomization/rndPolynom.ts&#45;&gt;maths/algebra/polynom.ts -->
<g id="edge127" class="edge">
<title>maths/randomization/rndPolynom.ts&#45;&gt;maths/algebra/polynom.ts</title>
<path fill="none" stroke="#757575" d="M1558.61,-549.03C1562.64,-551.46 1566.46,-554.24 1570,-557.4 1653.65,-632.11 1707.64,-1000.63 1720.19,-1094.57"/>
<polygon fill="#757575" stroke="#757575" points="1716.74,-1095.17 1721.51,-1104.63 1723.68,-1094.26 1716.74,-1095.17"/>
</g>
<!-- maths/randomization/rndPolynom.ts&#45;&gt;maths/randomization/random.ts -->
<g id="edge128" class="edge">
<title>maths/randomization/rndPolynom.ts&#45;&gt;maths/randomization/random.ts</title>
<path fill="none" stroke="#757575" d="M1319.7,-544.11C1308.19,-544.17 1296.53,-544.16 1285.07,-544.08"/>
<polygon fill="#757575" stroke="#757575" points="1285.08,-540.58 1275.05,-544 1285.02,-547.58 1285.08,-540.58"/>
</g>
<!-- maths/randomization/rndPolynom.ts&#45;&gt;maths/randomization/rndMonom.ts -->
<g id="edge130" class="edge">
<title>maths/randomization/rndPolynom.ts&#45;&gt;maths/randomization/rndMonom.ts</title>
<path fill="none" stroke="#757575" d="M1542.73,-525.89C1565.11,-523.34 1588.94,-520.63 1611.7,-518.05"/>
<polygon fill="#757575" stroke="#757575" points="1612.18,-521.52 1621.72,-516.91 1611.39,-514.56 1612.18,-521.52"/>
</g>
<!-- maths/randomization/rndPolynom.ts&#45;&gt;maths/randomization/rndTypes.ts -->
<g id="edge131" class="edge">
<title>maths/randomization/rndPolynom.ts&#45;&gt;maths/randomization/rndTypes.ts</title>
<path fill="none" stroke="#757575" d="M1469.44,-525.84C1501.7,-513.1 1556.68,-493.24 1606,-484.4 1712.89,-465.24 1836.55,-461.46 1925.76,-461.9"/>
<polygon fill="#757575" stroke="#757575" points="1925.89,-465.41 1935.92,-461.97 1925.94,-458.41 1925.89,-465.41"/>
</g>
<!-- maths/randomization/rndPolynom.ts&#45;&gt;maths/randomization/randomCore.ts -->
<g id="edge129" class="edge">
<title>maths/randomization/rndPolynom.ts&#45;&gt;maths/randomization/randomCore.ts</title>
<path fill="none" stroke="#757575" d="M1561.2,-535.75C1640.84,-534.18 1747.75,-531.16 1842,-525.4 1869.39,-523.72 1898.79,-521.35 1926.54,-518.84"/>
<polygon fill="#757575" stroke="#757575" points="1927.04,-522.31 1936.68,-517.92 1926.4,-515.34 1927.04,-522.31"/>
</g>
</g>
</svg>
